<svg xmlns="http://www.w3.org/2000/svg" width="960" height="1280" viewBox="0 0 960 1280"><path fill="#fdf4e5" d="M500.78 435.42C509.48 434.16 522.13 436.69 526.87 439.22C531.62 441.74 533.99 450.59 531.62 457.54C534.73 458.47 539.36 457.88 544.2 457.26C549.23 456.62 554.48 455.95 558.51 456.91C566.41 457.54 569.58 469.55 564.83 475.87C562.46 479.66 544.27 481.56 532.41 482.82C529.73 484.96 530.33 488.72 530.93 492.49C531.17 493.97 531.4 495.45 531.44 496.84C533.1 496.89 534.74 496.94 536.37 496.99L536.37 496.99C545.96 497.29 555.16 497.57 563.25 496.72C572.74 495.46 580.65 496.72 585.39 501.78C590.14 506.84 594.88 513.79 591.72 519.48C589.35 523.9 579.86 524.53 567.21 523.9C551.45 522.64 540.58 524.45 530.19 526.17C528.69 526.42 527.19 526.67 525.69 526.91C532.66 528.79 538.22 532.15 540.32 537.17C539.74 542.22 538.44 547.19 537.28 551.62C535.24 559.38 533.63 565.49 537.15 567.51C549.81 565.61 564.83 559.29 579.86 551.71C584.6 549.81 588.56 553.6 593.3 560.55C599.63 567.51 605.16 578.25 603.58 584.57C603.58 588.36 596.46 590.89 587.77 590.89C579.97 591.3 572.1 592.13 564.16 592.96C547.94 594.66 531.47 596.38 515.01 594.68C503.15 592.78 496.82 583.94 499.2 573.83C502.87 559.73 507.91 542.91 513.05 528.43C505.99 529.05 499.86 529.3 494.09 529.51C496.14 530.98 497.88 532.72 499.2 534.64C496.82 547.28 488.92 564.98 481.8 583.3C480.22 587.73 475.47 589.62 469.94 587.1C458.87 583.94 448.59 579.51 442.26 573.83C440.68 570.67 443.84 565.61 448.59 561.19C457.08 551.78 462.88 541.52 469.54 531.11C467.37 531.38 465.14 531.71 462.82 532.12C452.54 534.01 443.84 532.12 442.26 527.69C439.1 520.74 438.31 512.52 445.42 503.68C466.95 502.45 481.75 501.22 498.54 498.25C497.72 495.7 497.86 493.1 498 490.6C498.12 488.31 498.24 486.1 497.62 484.09C489.71 480.93 478.64 481.56 470.73 480.29C465.19 484.09 462.03 490.41 456.49 492.3C451.75 491.67 442.26 484.09 439.1 479.03C437.03 475.73 443.34 469.57 449.18 463.86C450.06 463.01 450.92 462.16 451.75 461.33C459.66 453.75 464.4 444.9 471.52 440.48C477.05 439.22 485.75 444.27 489.71 451.22C492.79 455.16 492.03 458.33 491.17 461.93C490.93 462.95 490.67 464.01 490.5 465.13C494.45 466.39 499.99 465.13 502.36 463.23C502.68 459.34 501.68 455.03 500.71 450.87C499.31 444.86 497.98 439.15 500.78 435.42ZM687.41 433.53C693.73 431 706.38 431 711.13 434.16C717.46 440.48 723.78 451.86 722.2 461.97C721.79 463.95 721.56 465.89 721.48 467.8L728.53 466.39L743.55 463.23L752.25 464.49L765.69 470.18C768.86 472.08 769.65 473.97 768.86 476.5L766.49 483.45L759.37 487.25C747.43 489.85 735.49 492.15 724.82 494.36C725.12 497.61 725.13 500.91 724.57 504.31C723.87 507.56 723.71 510.62 723.86 513.58C733.88 511.75 742.5 510.21 748.3 510.63L753.83 512.52L758.58 520.74L757.79 527.69L753.04 531.48C745.92 533.38 737.23 534.64 728.53 535.91C727.98 536 727.44 536.09 726.9 536.19C726.97 538.91 726.78 541.75 726.15 544.75C725.12 548.06 726.64 551.73 728.17 555.4C728.26 555.63 728.36 555.86 728.45 556.09C733.29 555.48 737.86 554.7 741.97 553.6L760.16 549.18L771.23 550.44L779.93 561.19L789.42 574.46C791 577.62 787.05 580.78 777.56 583.3L753.04 585.2C735.64 587.1 720.62 588.36 705.59 590.26C683.45 592.78 663.68 597.21 648.66 598.47L641.54 597.21L635.21 592.15L632.84 578.25L634.42 569.4L639.96 564.35C657.36 564.35 674.75 563.08 690.57 559.92C692.15 559.69 693.75 559.48 695.36 559.29C692.7 554.06 692.59 547.88 690.71 542.32C686.38 543.21 682.12 544.21 677.92 545.39L662.1 550.44L654.98 549.81L651.03 544.75L650.24 535.28C651.03 530.22 651.82 527.06 654.19 524.53C666.13 521.86 678.07 520.57 688.79 519.27C689.65 514.29 690.36 509.16 688.99 503.68C688.89 503.21 688.79 502.74 688.71 502.27C680.12 504.25 672.21 506.3 665.26 508.73L658.94 506.84L656.45 502.86C654.27 507.2 651.94 511.5 649.45 515.68C646.28 520.74 641.54 522 636.79 519.48C628.1 515.68 620.98 510 617.82 505.57C615.98 502.16 619.34 496.85 622.79 491.41C623.8 489.81 624.82 488.19 625.72 486.61C634.42 472.71 641.54 455.01 650.24 445.54C658.15 441.74 669.22 446.8 673.17 451.86C677.06 456.51 673.52 464.14 670.37 470.92C669.67 472.41 669 473.87 668.43 475.24C668.19 475.86 667.96 476.48 667.72 477.11C675.21 475.83 683.26 474.64 690.96 473.44C691.15 470.83 691.09 468.28 690.57 465.76C690.06 463.47 689.42 461.05 688.76 458.57C686.31 449.39 683.67 439.5 687.41 433.53ZM369.51 434.16L384.53 433.53L404.3 436.69L407.46 442.38L405.09 453.75C402.72 464.49 404.3 475.87 401.93 487.88L400.35 499.88C397.18 514.42 398.77 532.12 394.81 547.28L391.65 563.71C389.28 575.09 386.11 585.2 379.79 591.52L373.46 595.94L364.76 593.42L348.95 583.94C343.41 580.15 338.67 576.35 335.5 572.56L332.34 566.24L334.71 558.66L341.04 552.34C344.2 549.81 346.57 551.07 349.74 553.6L359.23 558.66L360.02 541.59C360.3 539.92 360.6 538.23 360.91 536.52C362.34 528.55 363.83 520.22 363.18 511.89L364.76 491.67L364.76 467.65L363.97 452.49C363.97 443.64 365.55 437.95 369.51 434.16ZM261.96 504.31C267.49 501.78 273.03 504.31 276.98 506.2C282.52 501.78 285.68 496.09 292.8 496.09C299.13 496.72 307.03 501.15 309.41 506.2C310.93 509.86 305.11 515.27 300.44 519.62C300.27 519.78 300.09 519.95 299.92 520.11C307.03 527.06 318.1 533.38 322.06 539.07C326.01 544.12 320.48 551.07 314.15 557.39C310.2 561.82 306.24 564.98 300.71 561.82C290.43 556.13 284.89 547.91 277.77 542.86C269.08 548.55 261.96 559.92 253.26 563.08C247.77 564.54 239.46 561.12 231.95 558.03C229.73 557.11 227.57 556.22 225.58 555.5C220.84 552.97 224 547.91 228.74 544.12C239.03 535.91 249.31 529.59 260.38 523.9C254.84 520.11 252.47 514.42 254.84 510Q257.21 506.2 261.96 504.31ZM227.16 474.61C247.72 473.34 262.75 471.45 277.77 470.18L296.75 469.55L313.36 467.65C318.9 467.02 323.64 467.65 325.22 470.18L328.38 476.5L326.01 484.72C326.01 489.14 322.85 491.67 317.31 493.57L296.75 495.46C282.52 496.72 270.66 497.99 258.79 499.88L244.56 503.04L234.28 501.78L227.95 496.09C225.58 492.3 224.79 489.14 224 486.61L222.42 480.93C223.21 477.77 224.79 475.87 227.16 474.61ZM333.92 480.29C338.67 479.03 346.57 480.29 350.53 481.56C352.73 484.64 352.25 490.19 351.75 495.84C351.53 498.29 351.32 500.75 351.32 503.04C352.23 507.43 351.56 512.23 350.99 516.36C350.56 519.38 350.19 522.03 350.53 523.9C348.15 526.43 337.08 526.43 333.13 524.53C331.72 521.54 331.98 516.99 332.26 512.07C332.46 508.69 332.66 505.13 332.34 501.78C331.55 493.57 331.55 484.72 333.92 480.29ZM268.28 441.11C276.19 438.58 287.26 437.32 293.59 439.22C297.54 443.01 299.13 449.33 302.29 455.65C303.87 460.07 297.54 464.49 291.22 466.39C286.09 466.85 282.2 465.01 278.94 463.47C277.68 462.87 276.51 462.32 275.4 461.97C274.61 459.65 273.12 457.19 271.62 454.73C268.64 449.82 265.65 444.9 268.28 441.11Z"/></svg>