<?xml version="1.0" encoding="UTF-8"?>
<!-- Generator: visioncortex VTracer 0.6.12 -->
<svg version="1.1" xmlns="http://www.w3.org/2000/svg" width="960" height="1280">
<path d="M0,0 L2,2 L0,2 Z " fill="#000000" transform="translate(390,420)"/>
<path d="M0,0 Z " fill="#000000" transform="translate(478,420)"/>
<path d="M0,0 Z " fill="#000000" transform="translate(541,420)"/>
<path d="M0,0 Z " fill="#000000" transform="translate(642,420)"/>
<path d="M0,0 Z " fill="#000000" transform="translate(644,420)"/>
<path d="M0,0 Z " fill="#000000" transform="translate(798,420)"/>
<path d="M0,0 Z " fill="#000000" transform="translate(643,421)"/>
<path d="M0,0 L2,1 Z " fill="#000000" transform="translate(645,421)"/>
<path d="M0,0 Z " fill="#000000" transform="translate(604,422)"/>
<path d="M0,0 Z " fill="#000000" transform="translate(391,423)"/>
<path d="M0,0 Z " fill="#000000" transform="translate(473,423)"/>
<path d="M0,0 Z " fill="#000000" transform="translate(606,423)"/>
<path d="M0,0 Z " fill="#000000" transform="translate(647,423)"/>
<path d="M0,0 Z " fill="#000000" transform="translate(518,424)"/>
<path d="M0,0 Z " fill="#000000" transform="translate(644,424)"/>
<path d="M0,0 Z " fill="#000000" transform="translate(677,424)"/>
<path d="M0,0 Z " fill="#000000" transform="translate(645,425)"/>
<path d="M0,0 L1,3 L-1,3 Z " fill="#000000" transform="translate(647,425)"/>
<path d="M0,0 Z " fill="#000000" transform="translate(254,426)"/>
<path d="M0,0 Z " fill="#000000" transform="translate(605,426)"/>
<path d="M0,0 Z " fill="#000000" transform="translate(607,426)"/>
<path d="M0,0 Z " fill="#000000" transform="translate(333,427)"/>
<path d="M0,0 Z " fill="#000000" transform="translate(608,427)"/>
<path d="M0,0 Z " fill="#000000" transform="translate(271,428)"/>
<path d="M0,0 L4,0 L4,2 L0,1 Z " fill="#000000" transform="translate(273,428)"/>
<path d="M0,0 Z " fill="#000000" transform="translate(451,428)"/>
<path d="M0,0 L3,3 L1,4 Z " fill="#000000" transform="translate(656,428)"/>
<path d="M0,0 Z " fill="#000000" transform="translate(272,429)"/>
<path d="M0,0 Z " fill="#000000" transform="translate(376,429)"/>
<path d="M0,0 Z " fill="#000000" transform="translate(544,429)"/>
<path d="M0,0 Z " fill="#000000" transform="translate(273,430)"/>
<path d="M0,0 L1,2 L-1,1 Z " fill="#000000" transform="translate(697,430)"/>
<path d="M0,0 L0,3 L-2,1 Z " fill="#000000" transform="translate(277,430)"/>
<path d="M0,0 Z " fill="#000000" transform="translate(310,431)"/>
<path d="M0,0 Z " fill="#000000" transform="translate(331,431)"/>
<path d="M0,0 Z " fill="#000000" transform="translate(600,431)"/>
<path d="M0,0 Z " fill="#000000" transform="translate(217,432)"/>
<path d="M0,0 Z " fill="#000000" transform="translate(278,432)"/>
<path d="M0,0 Z " fill="#000000" transform="translate(453,432)"/>
<path d="M0,0 L3,1 L2,4 L0,3 Z " fill="#000000" transform="translate(462,432)"/>
<path d="M0,0 Z " fill="#000000" transform="translate(622,432)"/>
<path d="M0,0 Z " fill="#000000" transform="translate(658,432)"/>
<path d="M0,0 L2,1 Z " fill="#000000" transform="translate(690,432)"/>
<path d="M0,0 L2,2 L0,2 Z " fill="#000000" transform="translate(218,433)"/>
<path d="M0,0 L3,3 L0,2 Z " fill="#000000" transform="translate(454,433)"/>
<path d="M0,0 Z " fill="#000000" transform="translate(613,434)"/>
<path d="M0,0 Z " fill="#000000" transform="translate(614,435)"/>
<path d="M0,0 Z " fill="#000000" transform="translate(621,435)"/>
<path d="M0,0 L2,1 Z " fill="#000000" transform="translate(648,435)"/>
<path d="M0,0 Z " fill="#000000" transform="translate(757,435)"/>
<path d="M0,0 L3,1 Z " fill="#000000" transform="translate(310,436)"/>
<path d="M0,0 L2,1 Z " fill="#000000" transform="translate(325,436)"/>
<path d="M0,0 Z " fill="#000000" transform="translate(308,437)"/>
<path d="M0,0 L3,1 Z " fill="#000000" transform="translate(288,438)"/>
<path d="M0,0 L3,1 Z " fill="#000000" transform="translate(304,438)"/>
<path d="M0,0 Z " fill="#000000" transform="translate(471,438)"/>
<path d="M0,0 Z " fill="#000000" transform="translate(254,439)"/>
<path d="M0,0 Z " fill="#000000" transform="translate(413,439)"/>
<path d="M0,0 Z " fill="#000000" transform="translate(650,439)"/>
<path d="M0,0 Z " fill="#000000" transform="translate(310,443)"/>
<path d="M0,0 Z " fill="#000000" transform="translate(651,443)"/>
<path d="M0,0 L2,1 Z " fill="#000000" transform="translate(459,444)"/>
<path d="M0,0 Z " fill="#000000" transform="translate(542,444)"/>
<path d="M0,0 L2,2 L0,2 Z " fill="#000000" transform="translate(750,444)"/>
<path d="M0,0 Z " fill="#000000" transform="translate(400,445)"/>
<path d="M0,0 Z " fill="#000000" transform="translate(543,445)"/>
<path d="M0,0 L2,2 L3,5 L-1,4 Z " fill="#000000" transform="translate(401,446)"/>
<path d="M0,0 Z " fill="#000000" transform="translate(544,447)"/>
<path d="M0,0 Z " fill="#000000" transform="translate(751,447)"/>
<path d="M0,0 Z " fill="#000000" transform="translate(243,448)"/>
<path d="M0,0 Z " fill="#000000" transform="translate(263,448)"/>
<path d="M0,0 Z " fill="#000000" transform="translate(485,449)"/>
<path d="M0,0 Z " fill="#000000" transform="translate(469,450)"/>
<path d="M0,0 Z " fill="#000000" transform="translate(545,450)"/>
<path d="M0,0 Z " fill="#000000" transform="translate(614,450)"/>
<path d="M0,0 Z " fill="#000000" transform="translate(486,451)"/>
<path d="M0,0 Z " fill="#000000" transform="translate(693,451)"/>
<path d="M0,0 Z " fill="#000000" transform="translate(254,452)"/>
<path d="M0,0 Z " fill="#000000" transform="translate(317,452)"/>
<path d="M0,0 Z " fill="#000000" transform="translate(418,452)"/>
<path d="M0,0 Z " fill="#000000" transform="translate(420,452)"/>
<path d="M0,0 Z " fill="#000000" transform="translate(574,452)"/>
<path d="M0,0 Z " fill="#000000" transform="translate(631,452)"/>
<path d="M0,0 L4,0 L4,2 L0,1 Z " fill="#000000" transform="translate(633,452)"/>
<path d="M0,0 Z " fill="#000000" transform="translate(419,453)"/>
<path d="M0,0 L2,1 Z " fill="#000000" transform="translate(421,453)"/>
<path d="M0,0 Z " fill="#000000" transform="translate(632,453)"/>
<path d="M0,0 Z " fill="#000000" transform="translate(736,453)"/>
<path d="M0,0 Z " fill="#000000" transform="translate(380,454)"/>
<path d="M0,0 Z " fill="#000000" transform="translate(633,454)"/>
<path d="M0,0 Z " fill="#000000" transform="translate(249,455)"/>
<path d="M0,0 Z " fill="#000000" transform="translate(382,455)"/>
<path d="M0,0 Z " fill="#000000" transform="translate(423,455)"/>
<path d="M0,0 L0,3 L-2,1 Z " fill="#000000" transform="translate(637,454)"/>
<path d="M0,0 Z " fill="#000000" transform="translate(670,455)"/>
<path d="M0,0 Z " fill="#000000" transform="translate(691,455)"/>
<path d="M0,0 Z " fill="#000000" transform="translate(294,456)"/>
<path d="M0,0 Z " fill="#000000" transform="translate(420,456)"/>
<path d="M0,0 Z " fill="#000000" transform="translate(453,456)"/>
<path d="M0,0 Z " fill="#000000" transform="translate(577,456)"/>
<path d="M0,0 Z " fill="#000000" transform="translate(638,456)"/>
<path d="M0,0 Z " fill="#000000" transform="translate(421,457)"/>
<path d="M0,0 L1,3 L-1,3 Z " fill="#000000" transform="translate(423,457)"/>
<path d="M0,0 L2,2 L0,2 Z " fill="#000000" transform="translate(578,457)"/>
<path d="M0,0 Z " fill="#000000" transform="translate(381,458)"/>
<path d="M0,0 Z " fill="#000000" transform="translate(383,458)"/>
<path d="M0,0 Z " fill="#000000" transform="translate(384,459)"/>
<path d="M0,0 Z " fill="#000000" transform="translate(227,460)"/>
<path d="M0,0 L3,3 L1,4 Z " fill="#000000" transform="translate(432,460)"/>
<path d="M0,0 L3,1 Z " fill="#000000" transform="translate(670,460)"/>
<path d="M0,0 L2,1 Z " fill="#000000" transform="translate(685,460)"/>
<path d="M0,0 Z " fill="#000000" transform="translate(320,461)"/>
<path d="M0,0 Z " fill="#000000" transform="translate(668,461)"/>
<path d="M0,0 L1,2 L-1,1 Z " fill="#000000" transform="translate(473,462)"/>
<path d="M0,0 L3,1 Z " fill="#000000" transform="translate(648,462)"/>
<path d="M0,0 L3,1 Z " fill="#000000" transform="translate(664,462)"/>
<path d="M0,0 Z " fill="#000000" transform="translate(376,463)"/>
<path d="M0,0 Z " fill="#000000" transform="translate(614,463)"/>
<path d="M0,0 Z " fill="#000000" transform="translate(773,463)"/>
<path d="M0,0 Z " fill="#000000" transform="translate(229,464)"/>
<path d="M0,0 L3,1 L2,4 L0,3 Z " fill="#000000" transform="translate(238,464)"/>
<path d="M0,0 Z " fill="#000000" transform="translate(398,464)"/>
<path d="M0,0 Z " fill="#000000" transform="translate(434,464)"/>
<path d="M0,0 L2,1 Z " fill="#000000" transform="translate(466,464)"/>
<path d="M0,0 L3,3 L0,2 Z " fill="#000000" transform="translate(230,465)"/>
<path d="M0,0 Z " fill="#000000" transform="translate(389,466)"/>
<path d="M0,0 Z " fill="#000000" transform="translate(390,467)"/>
<path d="M0,0 Z " fill="#000000" transform="translate(397,467)"/>
<path d="M0,0 L2,1 Z " fill="#000000" transform="translate(424,467)"/>
<path d="M0,0 Z " fill="#000000" transform="translate(533,467)"/>
<path d="M0,0 Z " fill="#000000" transform="translate(670,467)"/>
<path d="M0,0 Z " fill="#000000" transform="translate(760,469)"/>
<path d="M0,0 Z " fill="#000000" transform="translate(247,470)"/>
<path d="M0,0 L2,2 L3,5 L-1,4 Z " fill="#000000" transform="translate(761,470)"/>
<path d="M0,0 Z " fill="#000000" transform="translate(426,471)"/>
<path d="M0,0 Z " fill="#000000" transform="translate(603,472)"/>
<path d="M0,0 Z " fill="#000000" transform="translate(623,472)"/>
<path d="M0,0 Z " fill="#000000" transform="translate(427,475)"/>
<path d="M0,0 L2,1 Z " fill="#000000" transform="translate(235,476)"/>
<path d="M0,0 Z " fill="#000000" transform="translate(318,476)"/>
<path d="M0,0 L2,2 L0,2 Z " fill="#000000" transform="translate(526,476)"/>
<path d="M0,0 Z " fill="#000000" transform="translate(614,476)"/>
<path d="M0,0 Z " fill="#000000" transform="translate(677,476)"/>
<path d="M0,0 Z " fill="#000000" transform="translate(778,476)"/>
<path d="M0,0 Z " fill="#000000" transform="translate(780,476)"/>
<path d="M0,0 Z " fill="#000000" transform="translate(319,477)"/>
<path d="M0,0 Z " fill="#000000" transform="translate(779,477)"/>
<path d="M0,0 L2,1 Z " fill="#000000" transform="translate(781,477)"/>
<path d="M0,0 Z " fill="#000000" transform="translate(740,478)"/>
<path d="M0,0 Z " fill="#000000" transform="translate(320,479)"/>
<path d="M0,0 Z " fill="#000000" transform="translate(527,479)"/>
<path d="M0,0 Z " fill="#000000" transform="translate(609,479)"/>
<path d="M0,0 Z " fill="#000000" transform="translate(742,479)"/>
<path d="M0,0 Z " fill="#000000" transform="translate(783,479)"/>
<path d="M0,0 Z " fill="#000000" transform="translate(654,480)"/>
<path d="M0,0 Z " fill="#000000" transform="translate(780,480)"/>
<path d="M0,0 Z " fill="#000000" transform="translate(261,481)"/>
<path d="M0,0 Z " fill="#000000" transform="translate(781,481)"/>
<path d="M0,0 L1,3 L-1,3 Z " fill="#000000" transform="translate(783,481)"/>
<path d="M0,0 Z " fill="#000000" transform="translate(245,482)"/>
<path d="M0,0 Z " fill="#000000" transform="translate(321,482)"/>
<path d="M0,0 Z " fill="#000000" transform="translate(390,482)"/>
<path d="M0,0 Z " fill="#000000" transform="translate(741,482)"/>
<path d="M0,0 Z " fill="#000000" transform="translate(743,482)"/>
<path d="M0,0 Z " fill="#000000" transform="translate(262,483)"/>
<path d="M0,0 Z " fill="#000000" transform="translate(469,483)"/>
<path d="M0,0 Z " fill="#000000" transform="translate(744,483)"/>
<path d="M0,0 Z " fill="#000000" transform="translate(350,484)"/>
<path d="M0,0 Z " fill="#000000" transform="translate(407,484)"/>
<path d="M0,0 L4,0 L4,2 L0,1 Z " fill="#000000" transform="translate(409,484)"/>
<path d="M0,0 Z " fill="#000000" transform="translate(587,484)"/>
<path d="M0,0 L3,3 L1,4 Z " fill="#000000" transform="translate(792,484)"/>
<path d="M0,0 Z " fill="#000000" transform="translate(408,485)"/>
<path d="M0,0 Z " fill="#000000" transform="translate(512,485)"/>
<path d="M0,0 Z " fill="#000000" transform="translate(680,485)"/>
<path d="M0,0 Z " fill="#000000" transform="translate(409,486)"/>
<path d="M0,0 L0,3 L-2,1 Z " fill="#000000" transform="translate(413,486)"/>
<path d="M0,0 Z " fill="#000000" transform="translate(446,487)"/>
<path d="M0,0 Z " fill="#000000" transform="translate(467,487)"/>
<path d="M0,0 Z " fill="#000000" transform="translate(736,487)"/>
<path d="M0,0 Z " fill="#000000" transform="translate(229,488)"/>
<path d="M0,0 Z " fill="#000000" transform="translate(353,488)"/>
<path d="M0,0 Z " fill="#000000" transform="translate(414,488)"/>
<path d="M0,0 Z " fill="#000000" transform="translate(589,488)"/>
<path d="M0,0 L3,1 L2,4 L0,3 Z " fill="#000000" transform="translate(598,488)"/>
<path d="M0,0 Z " fill="#000000" transform="translate(758,488)"/>
<path d="M0,0 Z " fill="#000000" transform="translate(794,488)"/>
<path d="M0,0 L2,2 L0,2 Z " fill="#000000" transform="translate(354,489)"/>
<path d="M0,0 L3,3 L0,2 Z " fill="#000000" transform="translate(590,489)"/>
<path d="M0,0 Z " fill="#000000" transform="translate(749,490)"/>
<path d="M0,0 Z " fill="#000000" transform="translate(750,491)"/>
<path d="M0,0 Z " fill="#000000" transform="translate(757,491)"/>
<path d="M0,0 L2,1 Z " fill="#000000" transform="translate(784,491)"/>
<path d="M0,0 L3,1 Z " fill="#000000" transform="translate(446,492)"/>
<path d="M0,0 L2,1 Z " fill="#000000" transform="translate(461,492)"/>
<path d="M0,0 Z " fill="#000000" transform="translate(444,493)"/>
<path d="M0,0 L1,2 L-1,1 Z " fill="#000000" transform="translate(249,494)"/>
<path d="M0,0 L3,1 Z " fill="#000000" transform="translate(424,494)"/>
<path d="M0,0 L3,1 Z " fill="#000000" transform="translate(440,494)"/>
<path d="M0,0 Z " fill="#000000" transform="translate(607,494)"/>
<path d="M0,0 Z " fill="#000000" transform="translate(390,495)"/>
<path d="M0,0 Z " fill="#000000" transform="translate(549,495)"/>
<path d="M0,0 Z " fill="#000000" transform="translate(786,495)"/>
<path d="M0,0 L2,1 Z " fill="#000000" transform="translate(242,496)"/>
<path d="M0,0 Z " fill="#000000" transform="translate(309,499)"/>
<path d="M0,0 Z " fill="#000000" transform="translate(446,499)"/>
<path d="M0,0 Z " fill="#000000" transform="translate(787,499)"/>
<path d="M0,0 L2,1 Z " fill="#000000" transform="translate(595,500)"/>
<path d="M0,0 Z " fill="#000000" transform="translate(678,500)"/>
<path d="M0,0 Z " fill="#000000" transform="translate(536,501)"/>
<path d="M0,0 Z " fill="#000000" transform="translate(679,501)"/>
<path d="M0,0 L2,2 L3,5 L-1,4 Z " fill="#000000" transform="translate(537,502)"/>
<path d="M0,0 Z " fill="#000000" transform="translate(680,503)"/>
<path d="M0,0 Z " fill="#000000" transform="translate(379,504)"/>
<path d="M0,0 Z " fill="#000000" transform="translate(399,504)"/>
<path d="M0,0 Z " fill="#000000" transform="translate(621,505)"/>
<path d="M0,0 Z " fill="#000000" transform="translate(605,506)"/>
<path d="M0,0 Z " fill="#000000" transform="translate(681,506)"/>
<path d="M0,0 Z " fill="#000000" transform="translate(750,506)"/>
<path d="M0,0 Z " fill="#000000" transform="translate(622,507)"/>
<path d="M0,0 L2,2 L0,2 Z " fill="#000000" transform="translate(302,508)"/>
<path d="M0,0 Z " fill="#000000" transform="translate(390,508)"/>
<path d="M0,0 Z " fill="#000000" transform="translate(453,508)"/>
<path d="M0,0 Z " fill="#000000" transform="translate(554,508)"/>
<path d="M0,0 Z " fill="#000000" transform="translate(556,508)"/>
<path d="M0,0 Z " fill="#000000" transform="translate(710,508)"/>
<path d="M0,0 Z " fill="#000000" transform="translate(767,508)"/>
<path d="M0,0 L4,0 L4,2 L0,1 Z " fill="#000000" transform="translate(769,508)"/>
<path d="M0,0 Z " fill="#000000" transform="translate(555,509)"/>
<path d="M0,0 L2,1 Z " fill="#000000" transform="translate(557,509)"/>
<path d="M0,0 Z " fill="#000000" transform="translate(768,509)"/>
<path d="M0,0 Z " fill="#000000" transform="translate(516,510)"/>
<path d="M0,0 Z " fill="#000000" transform="translate(769,510)"/>
<path d="M0,0 Z " fill="#000000" transform="translate(303,511)"/>
<path d="M0,0 Z " fill="#000000" transform="translate(385,511)"/>
<path d="M0,0 Z " fill="#000000" transform="translate(518,511)"/>
<path d="M0,0 Z " fill="#000000" transform="translate(559,511)"/>
<path d="M0,0 L0,3 L-2,1 Z " fill="#000000" transform="translate(773,510)"/>
<path d="M0,0 Z " fill="#000000" transform="translate(430,512)"/>
<path d="M0,0 Z " fill="#000000" transform="translate(556,512)"/>
<path d="M0,0 Z " fill="#000000" transform="translate(589,512)"/>
<path d="M0,0 Z " fill="#000000" transform="translate(713,512)"/>
<path d="M0,0 Z " fill="#000000" transform="translate(774,512)"/>
<path d="M0,0 Z " fill="#000000" transform="translate(557,513)"/>
<path d="M0,0 L1,3 L-1,3 Z " fill="#000000" transform="translate(559,513)"/>
<path d="M0,0 L2,2 L0,2 Z " fill="#000000" transform="translate(714,513)"/>
<path d="M0,0 Z " fill="#000000" transform="translate(517,514)"/>
<path d="M0,0 Z " fill="#000000" transform="translate(519,514)"/>
<path d="M0,0 Z " fill="#000000" transform="translate(245,515)"/>
<path d="M0,0 Z " fill="#000000" transform="translate(520,515)"/>
<path d="M0,0 Z " fill="#000000" transform="translate(363,516)"/>
<path d="M0,0 L3,3 L1,4 Z " fill="#000000" transform="translate(568,516)"/>
<path d="M0,0 Z " fill="#000000" transform="translate(288,517)"/>
<path d="M0,0 Z " fill="#000000" transform="translate(456,517)"/>
<path d="M0,0 L1,2 L-1,1 Z " fill="#000000" transform="translate(609,518)"/>
<path d="M0,0 L3,1 Z " fill="#000000" transform="translate(784,518)"/>
<path d="M0,0 Z " fill="#000000" transform="translate(222,519)"/>
<path d="M0,0 Z " fill="#000000" transform="translate(243,519)"/>
<path d="M0,0 Z " fill="#000000" transform="translate(512,519)"/>
<path d="M0,0 Z " fill="#000000" transform="translate(750,519)"/>
<path d="M0,0 Z " fill="#000000" transform="translate(365,520)"/>
<path d="M0,0 L3,1 L2,4 L0,3 Z " fill="#000000" transform="translate(374,520)"/>
<path d="M0,0 Z " fill="#000000" transform="translate(534,520)"/>
<path d="M0,0 Z " fill="#000000" transform="translate(570,520)"/>
<path d="M0,0 L2,1 Z " fill="#000000" transform="translate(602,520)"/>
<path d="M0,0 L3,3 L0,2 Z " fill="#000000" transform="translate(366,521)"/>
<path d="M0,0 Z " fill="#000000" transform="translate(525,522)"/>
<path d="M0,0 Z " fill="#000000" transform="translate(533,523)"/>
<path d="M0,0 L2,1 Z " fill="#000000" transform="translate(560,523)"/>
<path d="M0,0 Z " fill="#000000" transform="translate(669,523)"/>
<path d="M0,0 L3,1 Z " fill="#000000" transform="translate(222,524)"/>
<path d="M0,0 L2,1 Z " fill="#000000" transform="translate(237,524)"/>
<path d="M0,0 Z " fill="#000000" transform="translate(220,525)"/>
<path d="M0,0 L3,1 Z " fill="#000000" transform="translate(216,526)"/>
<path d="M0,0 Z " fill="#000000" transform="translate(383,526)"/>
<path d="M0,0 Z " fill="#000000" transform="translate(325,527)"/>
<path d="M0,0 Z " fill="#000000" transform="translate(562,527)"/>
<path d="M0,0 Z " fill="#000000" transform="translate(739,528)"/>
<path d="M0,0 Z " fill="#000000" transform="translate(759,528)"/>
<path d="M0,0 Z " fill="#000000" transform="translate(222,531)"/>
<path d="M0,0 Z " fill="#000000" transform="translate(563,531)"/>
<path d="M0,0 L2,1 Z " fill="#000000" transform="translate(371,532)"/>
<path d="M0,0 Z " fill="#000000" transform="translate(454,532)"/>
<path d="M0,0 L2,2 L0,2 Z " fill="#000000" transform="translate(662,532)"/>
<path d="M0,0 Z " fill="#000000" transform="translate(750,532)"/>
<path d="M0,0 Z " fill="#000000" transform="translate(312,533)"/>
<path d="M0,0 Z " fill="#000000" transform="translate(455,533)"/>
<path d="M0,0 L2,2 L3,5 L-1,4 Z " fill="#000000" transform="translate(313,534)"/>
<path d="M0,0 Z " fill="#000000" transform="translate(456,535)"/>
<path d="M0,0 Z " fill="#000000" transform="translate(663,535)"/>
<path d="M0,0 Z " fill="#000000" transform="translate(745,535)"/>
<path d="M0,0 Z " fill="#000000" transform="translate(790,536)"/>
<path d="M0,0 Z " fill="#000000" transform="translate(397,537)"/>
<path d="M0,0 Z " fill="#000000" transform="translate(381,538)"/>
<path d="M0,0 Z " fill="#000000" transform="translate(457,538)"/>
<path d="M0,0 Z " fill="#000000" transform="translate(526,538)"/>
<path d="M0,0 Z " fill="#000000" transform="translate(398,539)"/>
<path d="M0,0 Z " fill="#000000" transform="translate(605,539)"/>
<path d="M0,0 Z " fill="#000000" transform="translate(229,540)"/>
<path d="M0,0 Z " fill="#000000" transform="translate(330,540)"/>
<path d="M0,0 Z " fill="#000000" transform="translate(332,540)"/>
<path d="M0,0 Z " fill="#000000" transform="translate(486,540)"/>
<path d="M0,0 Z " fill="#000000" transform="translate(543,540)"/>
<path d="M0,0 L4,0 L4,2 L0,1 Z " fill="#000000" transform="translate(545,540)"/>
<path d="M0,0 Z " fill="#000000" transform="translate(723,540)"/>
<path d="M0,0 Z " fill="#000000" transform="translate(331,541)"/>
<path d="M0,0 L2,1 Z " fill="#000000" transform="translate(333,541)"/>
<path d="M0,0 Z " fill="#000000" transform="translate(544,541)"/>
<path d="M0,0 Z " fill="#000000" transform="translate(648,541)"/>
<path d="M0,0 Z " fill="#000000" transform="translate(292,542)"/>
<path d="M0,0 Z " fill="#000000" transform="translate(545,542)"/>
<path d="M0,0 Z " fill="#000000" transform="translate(294,543)"/>
<path d="M0,0 Z " fill="#000000" transform="translate(335,543)"/>
<path d="M0,0 L0,3 L-2,1 Z " fill="#000000" transform="translate(549,542)"/>
<path d="M0,0 Z " fill="#000000" transform="translate(582,543)"/>
<path d="M0,0 Z " fill="#000000" transform="translate(603,543)"/>
<path d="M0,0 Z " fill="#000000" transform="translate(332,544)"/>
<path d="M0,0 Z " fill="#000000" transform="translate(365,544)"/>
<path d="M0,0 Z " fill="#000000" transform="translate(489,544)"/>
<path d="M0,0 Z " fill="#000000" transform="translate(550,544)"/>
<path d="M0,0 Z " fill="#000000" transform="translate(725,544)"/>
<path d="M0,0 L3,1 L2,4 L0,3 Z " fill="#000000" transform="translate(734,544)"/>
<path d="M0,0 Z " fill="#000000" transform="translate(333,545)"/>
<path d="M0,0 L1,3 L-1,3 Z " fill="#000000" transform="translate(335,545)"/>
<path d="M0,0 L2,2 L0,2 Z " fill="#000000" transform="translate(490,545)"/>
<path d="M0,0 L3,3 L0,2 Z " fill="#000000" transform="translate(726,545)"/>
<path d="M0,0 Z " fill="#000000" transform="translate(293,546)"/>
<path d="M0,0 Z " fill="#000000" transform="translate(295,546)"/>
<path d="M0,0 Z " fill="#000000" transform="translate(296,547)"/>
<path d="M0,0 L3,3 L1,4 Z " fill="#000000" transform="translate(344,548)"/>
<path d="M0,0 L3,1 Z " fill="#000000" transform="translate(582,548)"/>
<path d="M0,0 L2,1 Z " fill="#000000" transform="translate(597,548)"/>
<path d="M0,0 Z " fill="#000000" transform="translate(232,549)"/>
<path d="M0,0 Z " fill="#000000" transform="translate(580,549)"/>
<path d="M0,0 L1,2 L-1,1 Z " fill="#000000" transform="translate(385,550)"/>
<path d="M0,0 L3,1 Z " fill="#000000" transform="translate(560,550)"/>
<path d="M0,0 L3,1 Z " fill="#000000" transform="translate(576,550)"/>
<path d="M0,0 Z " fill="#000000" transform="translate(743,550)"/>
<path d="M0,0 Z " fill="#000000" transform="translate(288,551)"/>
<path d="M0,0 Z " fill="#000000" transform="translate(526,551)"/>
<path d="M0,0 Z " fill="#000000" transform="translate(685,551)"/>
<path d="M0,0 Z " fill="#000000" transform="translate(310,552)"/>
<path d="M0,0 Z " fill="#000000" transform="translate(346,552)"/>
<path d="M0,0 L2,1 Z " fill="#000000" transform="translate(378,552)"/>
<path d="M0,0 Z " fill="#000000" transform="translate(301,554)"/>
<path d="M0,0 Z " fill="#000000" transform="translate(302,555)"/>
<path d="M0,0 Z " fill="#000000" transform="translate(309,555)"/>
<path d="M0,0 L2,1 Z " fill="#000000" transform="translate(336,555)"/>
<path d="M0,0 Z " fill="#000000" transform="translate(445,555)"/>
<path d="M0,0 Z " fill="#000000" transform="translate(582,555)"/>
<path d="M0,0 Z " fill="#000000" transform="translate(672,557)"/>
<path d="M0,0 L2,2 L3,5 L-1,4 Z " fill="#000000" transform="translate(673,558)"/>
<path d="M0,0 Z " fill="#000000" transform="translate(338,559)"/>
<path d="M0,0 Z " fill="#000000" transform="translate(515,560)"/>
<path d="M0,0 Z " fill="#000000" transform="translate(535,560)"/>
<path d="M0,0 Z " fill="#000000" transform="translate(757,561)"/>
<path d="M0,0 Z " fill="#000000" transform="translate(741,562)"/>
<path d="M0,0 Z " fill="#000000" transform="translate(339,563)"/>
<path d="M0,0 Z " fill="#000000" transform="translate(758,563)"/>
<path d="M0,0 Z " fill="#000000" transform="translate(230,564)"/>
<path d="M0,0 L2,2 L0,2 Z " fill="#000000" transform="translate(438,564)"/>
<path d="M0,0 Z " fill="#000000" transform="translate(526,564)"/>
<path d="M0,0 Z " fill="#000000" transform="translate(589,564)"/>
<path d="M0,0 Z " fill="#000000" transform="translate(690,564)"/>
<path d="M0,0 Z " fill="#000000" transform="translate(692,564)"/>
<path d="M0,0 Z " fill="#000000" transform="translate(231,565)"/>
<path d="M0,0 Z " fill="#000000" transform="translate(691,565)"/>
<path d="M0,0 Z " fill="#000000" transform="translate(652,566)"/>
<path d="M0,0 Z " fill="#000000" transform="translate(232,567)"/>
<path d="M0,0 Z " fill="#000000" transform="translate(439,567)"/>
<path d="M0,0 Z " fill="#000000" transform="translate(521,567)"/>
<path d="M0,0 Z " fill="#000000" transform="translate(654,567)"/>
<path d="M0,0 Z " fill="#000000" transform="translate(566,568)"/>
<path d="M0,0 Z " fill="#000000" transform="translate(692,568)"/>
<path d="M0,0 Z " fill="#000000" transform="translate(233,570)"/>
<path d="M0,0 Z " fill="#000000" transform="translate(302,570)"/>
<path d="M0,0 Z " fill="#000000" transform="translate(653,570)"/>
<path d="M0,0 Z " fill="#000000" transform="translate(655,570)"/>
<path d="M0,0 Z " fill="#000000" transform="translate(381,571)"/>
<path d="M0,0 Z " fill="#000000" transform="translate(656,571)"/>
<path d="M0,0 Z " fill="#000000" transform="translate(262,572)"/>
<path d="M0,0 Z " fill="#000000" transform="translate(319,572)"/>
<path d="M0,0 L4,0 L4,2 L0,1 Z " fill="#000000" transform="translate(321,572)"/>
<path d="M0,0 Z " fill="#000000" transform="translate(499,572)"/>
<path d="M0,0 Z " fill="#000000" transform="translate(320,573)"/>
<path d="M0,0 Z " fill="#000000" transform="translate(424,573)"/>
<path d="M0,0 Z " fill="#000000" transform="translate(592,573)"/>
<path d="M0,0 L3,1 L1,3 Z " fill="#000000" transform="translate(704,573)"/>
<path d="M0,0 Z " fill="#000000" transform="translate(321,574)"/>
<path d="M0,0 L1,2 L-1,1 Z " fill="#000000" transform="translate(745,574)"/>
<path d="M0,0 L0,3 L-2,1 Z " fill="#000000" transform="translate(325,574)"/>
<path d="M0,0 Z " fill="#000000" transform="translate(358,575)"/>
<path d="M0,0 Z " fill="#000000" transform="translate(379,575)"/>
<path d="M0,0 Z " fill="#000000" transform="translate(648,575)"/>
<path d="M0,0 Z " fill="#000000" transform="translate(265,576)"/>
<path d="M0,0 Z " fill="#000000" transform="translate(326,576)"/>
<path d="M0,0 Z " fill="#000000" transform="translate(501,576)"/>
<path d="M0,0 L3,1 L2,4 L0,3 Z " fill="#000000" transform="translate(510,576)"/>
<path d="M0,0 Z " fill="#000000" transform="translate(670,576)"/>
<path d="M0,0 Z " fill="#000000" transform="translate(706,576)"/>
<path d="M0,0 L2,1 Z " fill="#000000" transform="translate(738,576)"/>
<path d="M0,0 L2,2 L0,2 Z " fill="#000000" transform="translate(266,577)"/>
<path d="M0,0 L3,3 L0,2 Z " fill="#000000" transform="translate(502,577)"/>
<path d="M0,0 Z " fill="#000000" transform="translate(661,578)"/>
<path d="M0,0 Z " fill="#000000" transform="translate(662,579)"/>
<path d="M0,0 Z " fill="#000000" transform="translate(669,579)"/>
<path d="M0,0 L2,1 Z " fill="#000000" transform="translate(696,579)"/>
<path d="M0,0 L3,1 Z " fill="#000000" transform="translate(358,580)"/>
<path d="M0,0 L2,1 Z " fill="#000000" transform="translate(373,580)"/>
<path d="M0,0 Z " fill="#000000" transform="translate(356,581)"/>
<path d="M0,0 L3,1 Z " fill="#000000" transform="translate(336,582)"/>
<path d="M0,0 L3,1 Z " fill="#000000" transform="translate(352,582)"/>
<path d="M0,0 Z " fill="#000000" transform="translate(519,582)"/>
<path d="M0,0 Z " fill="#000000" transform="translate(302,583)"/>
<path d="M0,0 Z " fill="#000000" transform="translate(461,583)"/>
<path d="M0,0 Z " fill="#000000" transform="translate(698,583)"/>
<path d="M0,0 Z " fill="#000000" transform="translate(221,587)"/>
<path d="M0,0 Z " fill="#000000" transform="translate(358,587)"/>
<path d="M0,0 Z " fill="#000000" transform="translate(699,587)"/>
<path d="M0,0 L2,1 Z " fill="#000000" transform="translate(507,588)"/>
<path d="M0,0 Z " fill="#000000" transform="translate(590,588)"/>
<path d="M0,0 L2,2 L0,2 Z " fill="#000000" transform="translate(798,588)"/>
<path d="M0,0 Z " fill="#000000" transform="translate(448,589)"/>
<path d="M0,0 Z " fill="#000000" transform="translate(591,589)"/>
<path d="M0,0 L2,2 L3,5 L-1,4 Z " fill="#000000" transform="translate(449,590)"/>
<path d="M0,0 Z " fill="#000000" transform="translate(592,591)"/>
<path d="M0,0 Z " fill="#000000" transform="translate(799,591)"/>
<path d="M0,0 Z " fill="#000000" transform="translate(291,592)"/>
<path d="M0,0 Z " fill="#000000" transform="translate(311,592)"/>
<path d="M0,0 Z " fill="#000000" transform="translate(533,593)"/>
<path d="M0,0 Z " fill="#000000" transform="translate(517,594)"/>
<path d="M0,0 Z " fill="#000000" transform="translate(593,594)"/>
<path d="M0,0 Z " fill="#000000" transform="translate(662,594)"/>
<path d="M0,0 Z " fill="#000000" transform="translate(534,595)"/>
<path d="M0,0 Z " fill="#000000" transform="translate(741,595)"/>
<path d="M0,0 Z " fill="#000000" transform="translate(302,596)"/>
<path d="M0,0 Z " fill="#000000" transform="translate(365,596)"/>
<path d="M0,0 Z " fill="#000000" transform="translate(466,596)"/>
<path d="M0,0 Z " fill="#000000" transform="translate(468,596)"/>
<path d="M0,0 Z " fill="#000000" transform="translate(622,596)"/>
<path d="M0,0 Z " fill="#000000" transform="translate(679,596)"/>
<path d="M0,0 L4,0 L4,2 L0,1 Z " fill="#000000" transform="translate(681,596)"/>
<path d="M0,0 Z " fill="#000000" transform="translate(467,597)"/>
<path d="M0,0 L2,1 Z " fill="#000000" transform="translate(469,597)"/>
<path d="M0,0 Z " fill="#000000" transform="translate(680,597)"/>
<path d="M0,0 Z " fill="#000000" transform="translate(784,597)"/>
<path d="M0,0 Z " fill="#000000" transform="translate(428,598)"/>
<path d="M0,0 Z " fill="#000000" transform="translate(681,598)"/>
<path d="M0,0 Z " fill="#000000" transform="translate(297,599)"/>
<path d="M0,0 Z " fill="#000000" transform="translate(430,599)"/>
<path d="M0,0 Z " fill="#000000" transform="translate(471,599)"/>
<path d="M0,0 L0,3 L-2,1 Z " fill="#000000" transform="translate(685,598)"/>
<path d="M0,0 Z " fill="#000000" transform="translate(718,599)"/>
<path d="M0,0 Z " fill="#000000" transform="translate(739,599)"/>
<path d="M0,0 Z " fill="#000000" transform="translate(342,600)"/>
<path d="M0,0 Z " fill="#000000" transform="translate(468,600)"/>
<path d="M0,0 Z " fill="#000000" transform="translate(501,600)"/>
<path d="M0,0 Z " fill="#000000" transform="translate(625,600)"/>
<path d="M0,0 Z " fill="#000000" transform="translate(686,600)"/>
<path d="M0,0 Z " fill="#000000" transform="translate(469,601)"/>
<path d="M0,0 L1,3 L-1,3 Z " fill="#000000" transform="translate(471,601)"/>
<path d="M0,0 L2,2 L0,2 Z " fill="#000000" transform="translate(626,601)"/>
<path d="M0,0 Z " fill="#000000" transform="translate(429,602)"/>
<path d="M0,0 Z " fill="#000000" transform="translate(431,602)"/>
<path d="M0,0 Z " fill="#000000" transform="translate(432,603)"/>
<path d="M0,0 Z " fill="#000000" transform="translate(275,604)"/>
<path d="M0,0 L3,3 L1,4 Z " fill="#000000" transform="translate(480,604)"/>
<path d="M0,0 L3,1 Z " fill="#000000" transform="translate(718,604)"/>
<path d="M0,0 L2,1 Z " fill="#000000" transform="translate(733,604)"/>
<path d="M0,0 Z " fill="#000000" transform="translate(368,605)"/>
<path d="M0,0 Z " fill="#000000" transform="translate(716,605)"/>
<path d="M0,0 L1,2 L-1,1 Z " fill="#000000" transform="translate(521,606)"/>
<path d="M0,0 L3,1 Z " fill="#000000" transform="translate(696,606)"/>
<path d="M0,0 L3,1 Z " fill="#000000" transform="translate(712,606)"/>
<path d="M0,0 Z " fill="#000000" transform="translate(424,607)"/>
<path d="M0,0 Z " fill="#000000" transform="translate(662,607)"/>
<path d="M0,0 Z " fill="#000000" transform="translate(277,608)"/>
<path d="M0,0 L3,1 L2,4 L0,3 Z " fill="#000000" transform="translate(286,608)"/>
<path d="M0,0 Z " fill="#000000" transform="translate(446,608)"/>
<path d="M0,0 Z " fill="#000000" transform="translate(482,608)"/>
<path d="M0,0 L2,1 Z " fill="#000000" transform="translate(514,608)"/>
<path d="M0,0 L3,3 L0,2 Z " fill="#000000" transform="translate(278,609)"/>
<path d="M0,0 Z " fill="#000000" transform="translate(437,610)"/>
<path d="M0,0 Z " fill="#000000" transform="translate(438,611)"/>
<path d="M0,0 Z " fill="#000000" transform="translate(445,611)"/>
<path d="M0,0 L2,1 Z " fill="#000000" transform="translate(472,611)"/>
<path d="M0,0 Z " fill="#000000" transform="translate(581,611)"/>
<path d="M0,0 Z " fill="#000000" transform="translate(718,611)"/>
</svg>
