<svg xmlns="http://www.w3.org/2000/svg" width="1536" height="1024" viewBox="0 0 1536 1024"><g id="brand" transform="translate(88,76) scale(0.6155507559395248) translate(-74,-91)"><path d="M0 0 C10.287 2.492 19.481 6.57 26.516 14.609 C27.391 16.797 27.391 16.797 27.516 18.609 C27.186 19.269 26.856 19.929 26.516 20.609 C25.856 20.609 25.196 20.609 24.516 20.609 C24.227 21.207 23.938 21.806 23.641 22.422 C22.516 24.609 22.516 24.609 20.516 27.609 C21.292 27.594 22.068 27.578 22.867 27.562 C26.417 27.499 29.966 27.46 33.516 27.422 C34.736 27.397 35.957 27.372 37.215 27.346 C44.981 27.283 51.686 27.297 57.828 32.609 C60.336 37.067 61.933 41.511 62.516 46.609 C61.266 49.672 61.266 49.672 58.516 51.609 C52.521 53.551 46.576 53.887 40.324 53.805 C39.494 53.802 38.663 53.799 37.807 53.796 C35.189 53.785 32.571 53.76 29.953 53.734 C28.163 53.724 26.374 53.715 24.584 53.707 C20.228 53.685 15.872 53.651 11.516 53.609 C13.875 51.25 15.295 51.118 18.516 50.609 C18.516 49.949 18.516 49.289 18.516 48.609 C17.691 48.754 16.866 48.898 16.016 49.047 C12.516 49.609 12.516 49.609 8.641 49.672 C3.077 50.273 -0.027 54.572 -3.484 58.609 C-4.144 57.619 -4.804 56.629 -5.484 55.609 C-5.691 56.331 -5.897 57.053 -6.109 57.797 C-7.898 61.455 -10.264 63.162 -13.484 65.609 C-14.227 66.207 -14.969 66.806 -15.734 67.422 C-17.484 68.609 -17.484 68.609 -19.484 68.609 C-19.484 69.269 -19.484 69.929 -19.484 70.609 C-18.824 70.609 -18.164 70.609 -17.484 70.609 C-15.484 73.609 -15.484 73.609 -15.547 76.547 C-16.706 80.333 -18.298 81.379 -21.484 83.609 C-21.814 84.269 -22.144 84.929 -22.484 85.609 C-21.936 85.7 -21.388 85.791 -20.823 85.884 C-10.577 87.661 -0.447 89.987 9.703 92.234 C11.628 92.659 13.553 93.084 15.479 93.508 C20.158 94.54 24.837 95.574 29.516 96.609 C29.516 95.949 29.516 95.289 29.516 94.609 C41.68 95.548 52.787 97.181 64.516 100.609 C66.928 101.212 69.344 101.796 71.766 102.359 C72.284 102.481 72.284 102.481 74.906 103.094 C77.516 103.609 77.516 103.609 80.516 103.609 C82.417 101.484 84.126 99.386 85.828 97.109 C86.322 96.464 86.815 95.82 87.323 95.155 C88.73 93.313 90.124 91.462 91.516 89.609 C92.101 88.842 92.686 88.075 93.289 87.285 C96.677 82.821 99.953 78.272 103.242 73.734 C105.367 70.814 107.504 67.904 109.644 64.996 C113.752 59.413 117.835 53.819 121.777 48.117 C123.058 46.269 124.355 44.432 125.66 42.602 C131.138 34.856 135.946 26.915 140.516 18.609 C139.856 18.609 139.196 18.609 138.516 18.609 C138.846 17.289 139.176 15.969 139.516 14.609 C146.153 12.921 151.341 14.957 157.293 18.055 C164.194 22.217 173.048 27.628 175.43 35.711 C175.458 36.667 175.486 37.624 175.516 38.609 C173.236 40.941 171.121 42.693 168.516 44.609 C161.423 50.148 154.977 55.951 148.755 62.444 C147.377 63.867 145.95 65.243 144.516 66.609 C143.856 66.609 143.196 66.609 142.516 66.609 C142.259 67.205 142.003 67.8 141.738 68.414 C140.406 70.806 139.082 72.037 136.953 73.734 C133.613 76.415 133.613 76.415 132.516 78.609 C133.386 78.867 134.256 79.125 135.152 79.391 C138.567 80.628 141.283 82.143 144.328 84.109 C145.283 84.718 146.239 85.326 147.223 85.953 C149.516 87.609 149.516 87.609 150.516 89.609 C150.905 94.088 150.317 97.655 149.137 101.988 C147.383 108.825 146.314 115.689 145.328 122.672 C145.151 123.88 144.974 125.089 144.791 126.334 C143.516 135.153 143.516 135.153 143.516 138.609 C143.853 137.61 144.191 136.611 144.539 135.582 C144.989 134.279 145.44 132.975 145.891 131.672 C146.112 131.013 146.334 130.353 146.562 129.674 C148.289 124.723 148.289 124.723 150.516 123.609 C149.5 131.734 148.484 139.859 147.469 147.984 C147.359 148.863 147.249 149.742 147.136 150.648 C146.915 152.414 146.694 154.179 146.471 155.945 C145.953 160.062 145.446 164.179 144.971 168.301 C144.929 168.664 144.929 168.664 144.712 170.501 C144.485 172.439 144.264 174.378 144.044 176.317 C143.349 180.647 142.291 185.117 139.516 188.609 C137.633 189.457 137.633 189.457 135.516 189.609 C133.531 188.836 133.531 188.836 131.516 187.609 C130.83 187.205 130.144 186.8 129.438 186.383 C121.499 181.271 114.209 174.901 109.516 166.609 C110.278 164.26 110.278 164.26 111.516 161.609 C114.774 152.379 116.7 143.125 118.271 133.499 C118.639 131.243 119.02 128.988 119.402 126.734 C121.7 113.08 123.629 99.438 124.516 85.609 C123.856 85.609 123.196 85.609 122.516 85.609 C122.268 86.207 122.021 86.806 121.766 87.422 C120.335 89.926 118.946 91.09 116.516 92.609 C115.856 92.609 115.196 92.609 114.516 92.609 C114.275 93.209 114.034 93.808 113.785 94.426 C112.258 97.052 110.786 97.98 108.203 99.547 C105.365 101.34 102.888 103.043 100.578 105.484 C99.897 106.186 99.217 106.887 98.516 107.609 C97.856 107.609 97.196 107.609 96.516 107.609 C96.516 108.269 96.516 108.929 96.516 109.609 C93.927 111.468 91.32 113.162 88.535 114.711 C79.708 119.953 73.784 128.297 67.441 136.191 C63.816 140.583 61.068 143.038 55.516 144.609 C45.722 142.998 36.295 137.053 27.828 132.172 C26.861 131.625 25.893 131.077 24.896 130.514 C17.315 126.188 10.075 121.463 2.953 116.422 C-2.194 112.801 -7.375 109.231 -12.573 105.684 C-17.294 102.456 -21.92 99.123 -26.469 95.656 C-28.484 94.609 -28.484 94.609 -30.574 94.742 C-32.844 95.773 -33.758 96.776 -35.297 98.734 C-38.996 103.175 -43.012 107.229 -47.109 111.297 C-47.755 111.938 -48.401 112.58 -49.066 113.241 C-50.871 115.032 -52.677 116.821 -54.484 118.609 C-57.282 121.39 -60.053 124.193 -62.797 127.027 C-70.575 135.012 -78.415 142.121 -87.484 148.609 C-88.326 149.312 -89.168 150.014 -90.035 150.738 C-97.486 156.474 -104.667 156.421 -113.715 156.441 C-118.248 156.475 -122.12 157.438 -126.484 158.609 C-126.814 158.279 -127.144 157.949 -127.484 157.609 C-130.942 158.272 -134.349 159.104 -137.773 159.918 C-141.457 160.604 -144.748 160.647 -148.484 160.609 C-150.803 160.897 -153.117 161.229 -155.422 161.609 C-156.565 161.795 -157.709 161.981 -158.887 162.172 C-159.315 162.244 -159.315 162.244 -161.484 162.609 C-159.395 160.342 -157.461 158.918 -154.703 157.551 C-153.953 157.171 -153.202 156.791 -152.429 156.399 C-151.622 155.994 -150.815 155.589 -149.984 155.172 C-141.216 150.676 -132.924 145.625 -124.656 140.273 C-122.071 138.602 -119.47 136.999 -116.789 135.484 C-107.312 130.107 -98.677 123.589 -90.121 116.883 C-88.513 115.632 -86.892 114.399 -85.266 113.172 C-73.453 104.25 -62.434 94.73 -51.922 84.297 C-51.16 83.544 -50.398 82.791 -49.613 82.016 C-38.52 70.86 -38.52 70.86 -37.484 63.609 C-37.154 63.279 -37.154 63.279 -35.484 61.609 C-33.461 61.781 -33.461 61.781 -31.109 62.359 C-30.339 62.54 -29.568 62.72 -28.773 62.906 C-26.518 63.599 -24.558 64.492 -22.484 65.609 C-22.291 64.946 -22.098 64.282 -21.898 63.598 C-21.638 62.715 -21.378 61.832 -21.109 60.922 C-20.854 60.052 -20.599 59.182 -20.336 58.285 C-19.503 55.667 -18.517 53.154 -17.484 50.609 C-21.422 51.754 -25.36 52.9 -29.297 54.047 C-30.416 54.372 -31.536 54.698 -32.689 55.033 C-33.226 55.19 -33.226 55.19 -35.941 55.98 C-36.931 56.268 -37.921 56.557 -38.941 56.853 C-40.799 57.406 -42.645 57.996 -44.484 58.609 C-45.36 60.527 -45.36 60.527 -46.055 63.012 C-46.311 63.902 -46.568 64.792 -46.832 65.709 C-47.089 66.645 -47.345 67.582 -47.609 68.547 C-48.132 70.39 -48.655 72.232 -49.18 74.074 C-49.407 74.895 -49.634 75.716 -49.868 76.562 C-50.484 78.609 -50.484 78.609 -51.484 80.609 C-57.463 77.952 -61.182 74.236 -64.484 68.609 C-64.484 67.949 -64.484 67.289 -64.484 66.609 C-66.904 67.791 -69.32 68.979 -71.734 70.172 C-72.459 70.53 -73.184 70.887 -73.931 71.256 C-79.438 74.006 -84.653 77.033 -89.836 80.359 C-93.05 81.877 -94.968 82.114 -98.484 81.609 C-109.002 74.838 -116.916 63.042 -123.484 52.609 C-120.151 51.54 -117.621 51.719 -114.172 52.172 C-99.681 53.481 -85.415 49.132 -71.484 45.609 C-72.071 42.523 -72.682 39.441 -73.297 36.359 C-73.463 35.487 -73.628 34.614 -73.799 33.715 C-75.411 25.744 -75.411 25.744 -78.484 22.609 C-71.27 17.8 -57.963 22.08 -49.664 23.598 C-44.44 25.26 -44.44 25.26 -42.484 28.609 C-42.462 32.336 -42.901 35.933 -43.484 39.609 C-42.835 39.463 -42.185 39.317 -41.516 39.166 C-38.527 38.496 -35.537 37.834 -32.547 37.172 C-31.525 36.942 -30.504 36.712 -29.451 36.475 C-23.46 35.154 -17.595 34.164 -11.484 33.609 C-11.423 33.103 -11.423 33.103 -11.113 30.543 C-10.508 26.757 -9.569 23.326 -8.422 19.672 C-6.873 14.378 -5.863 10.096 -6.484 4.609 C-6.814 4.114 -6.814 4.114 -8.484 1.609 C-5.164 -0.604 -3.84 -0.597 0 0 Z M109.516 78.609 C107.891 80.609 107.891 80.609 106.516 82.609 C106.846 83.269 107.176 83.929 107.516 84.609 C108.891 83.32 110.223 81.982 111.516 80.609 C111.516 79.949 111.516 79.289 111.516 78.609 C110.856 78.609 110.196 78.609 109.516 78.609 Z M105.516 84.609 C105.227 84.981 105.227 84.981 103.766 86.859 C101.516 89.609 101.516 89.609 99.203 91.422 C96.135 93.919 93.717 96.698 91.164 99.707 C89.516 101.609 89.516 101.609 87.805 103.23 C86.516 104.609 86.516 104.609 86.516 106.609 C89.189 106.243 90.303 105.841 92.156 103.824 C92.687 103.073 93.218 102.321 93.766 101.547 C96.816 97.4 100.132 93.917 103.914 90.434 C105.641 88.467 106.121 87.166 106.516 84.609 C106.186 84.609 105.856 84.609 105.516 84.609 Z M93.516 104.609 C93.186 105.599 92.856 106.589 92.516 107.609 C98.266 105.984 98.266 105.984 100.516 102.609 C97.796 102.609 95.948 103.424 93.516 104.609 Z " fill="#F3EEE3" transform="translate(235.484375,91.390625)" />
<path d="M0 0 C11.407 0 20.946 7.461 29.172 14.691 C31.396 17.5 31.834 19.447 32 23 C30.375 24.937 30.375 24.937 28 27 C22.729 33.797 18.826 41.319 15 49 C39.366 37.857 39.366 37.857 50.668 32.555 C54.102 30.952 57.551 29.383 61 27.812 C64.467 26.234 67.729 24.612 70.938 22.562 C74 21 74 21 77.062 21 C87.22 24.458 93.571 33.23 99 42 C97.379 44.739 96.545 45.847 93.426 46.723 C92.398 46.835 91.371 46.947 90.312 47.062 C89.147 47.213 87.982 47.364 86.781 47.52 C85.533 47.678 84.286 47.837 83 48 C72.489 49.596 62.786 52.169 52.766 55.695 C46.114 58 46.114 58 43 58 C42.505 58.165 42.505 58.165 40 59 C40 58.34 40 57.68 40 57 C40.66 57 41.32 57 42 57 C42 56.34 42 55.68 42 55 C34.146 57.06 26.856 60.076 19.427 63.307 C19.026 63.48 19.026 63.48 17 64.355 C16.278 64.672 15.556 64.988 14.812 65.313 C13 66 13 66 11 66 C11 66.66 11 67.32 11 68 C11.583 68.026 12.165 68.052 12.766 68.078 C20.923 68.642 30.851 70.152 37 76 C37.572 81.431 36.686 86.219 35.438 91.508 C34.934 94.375 34.933 97.095 35 100 C35.274 99.805 35.274 99.805 36.66 98.82 C42.042 95.023 47.471 91.299 52.938 87.625 C53.588 87.184 54.238 86.744 54.908 86.29 C57.587 84.497 59.927 83.024 63 82 C63 81.34 63 80.68 63 80 C66.644 78.589 68.863 79.133 72.312 80.625 C73.887 81.393 75.45 82.185 77 83 C77.721 83.375 78.441 83.75 79.184 84.137 C83.895 86.818 87.81 89.906 90 95 C89.812 98.438 89.812 98.438 89 101 C83.877 102.737 78.744 104.384 73.562 105.938 C63.967 108.914 55.967 112.383 47.645 118.003 C43.188 121 43.188 121 41 121 C40.835 121.495 40.835 121.495 40 124 C39.505 124.165 39.505 124.165 37 125 C31.183 129.823 30.97 135.815 30.262 142.93 C30.175 143.943 30.089 144.956 30 146 C38.63 142.498 47.117 138.736 55.558 134.806 C57.588 133.863 59.623 132.93 61.658 131.996 C62.961 131.391 64.264 130.786 65.566 130.18 C66.731 129.641 67.896 129.102 69.096 128.546 C71.651 127.186 73.044 126.038 75 124 C82.787 121.693 88.904 124.602 96 128 C101.962 131.263 107.098 134.312 111 140 C111.25 143.312 111.25 143.312 111 146 C110.34 146 109.68 146 109 146 C108.902 146.75 108.804 147.5 108.703 148.273 C107.464 153.077 104.123 155.473 100 158 C95.736 159.432 91.419 160.197 87 161 C84.913 161.504 82.829 162.024 80.75 162.562 C67.09 166 67.09 166 63 166 C62.072 166.516 61.144 167.031 60.188 167.562 C56.528 169.213 54.815 168.999 51 168 C52.555 164.183 55.036 161.808 58 159 C47.964 158.839 47.964 158.839 43.625 159.562 C40.739 160.043 38.828 159.653 36 159 C34.333 158.978 32.666 158.975 31 159 C30.044 167.485 29.982 175.735 30.375 184.25 C30.417 185.234 30.46 186.217 30.503 187.231 C30.725 191.91 31.032 196.546 31.574 201.199 C32.804 212.428 32.804 212.428 30.668 216.605 C28.594 218.79 26.516 220.346 24 222 C23.548 222.335 23.548 222.335 21.262 224.031 C19.387 225.421 17.496 226.79 15.59 228.137 C12.885 230.083 10.388 232.155 7.891 234.355 C5.383 236.536 2.819 238.642 0.25 240.75 C-0.673 241.508 -1.596 242.266 -2.547 243.047 C-5 245 -5 245 -8 247 C-8.112 237.663 -7.831 228.435 -7.125 219.125 C-7.035 217.903 -6.945 216.68 -6.852 215.421 C-6.174 206.564 -5.216 197.8 -4 189 C-2.452 177.565 -1.357 166.145 -0.492 154.641 C-0.361 152.918 -0.229 151.195 -0.097 149.472 C0.176 145.886 0.446 142.299 0.714 138.712 C1.054 134.176 1.404 129.641 1.757 125.106 C2.031 121.554 2.299 118.002 2.565 114.449 C2.691 112.78 2.819 111.11 2.95 109.441 C3.665 100.291 4.114 91.187 4.14 82.007 C4.144 81.151 4.148 80.295 4.151 79.413 C4.15 79.016 4.15 79.016 4.141 77.004 C4.139 76.302 4.136 75.6 4.133 74.877 C4 73 4 73 3 70 C-0.619 71.727 -3.876 73.477 -7 76 C-7.165 75.835 -7.165 75.835 -8 75 C-8.763 75.825 -9.526 76.65 -10.312 77.5 C-13 80 -13 80 -16 80 C-16.33 80.165 -16.33 80.165 -18 81 C-16.782 76.315 -15.304 72.295 -13 68 C-13.436 68.629 -13.871 69.258 -14.32 69.906 C-16.203 72.612 -18.098 75.308 -20 78 C-20.559 78.795 -21.119 79.591 -21.695 80.41 C-22.208 81.12 -22.721 81.831 -23.25 82.562 C-23.709 83.203 -24.168 83.844 -24.641 84.504 C-26 86 -26 86 -29 87 C-27.336 81.419 -25.244 76.196 -22.75 70.938 C-18.998 63.027 -15.429 55.056 -12 47 C-11.815 46.567 -11.815 46.567 -10.88 44.375 C3.005 11.639 3.005 11.639 0 3.188 C-0.33 2.466 -0.66 1.744 -1 1 C-0.67 0.67 -0.34 0.34 0 0 Z M-10 62 C-9 64 -9 64 -9 64 Z M-12 65 C-11 67 -11 67 -11 67 Z M-13 75 C-12 77 -12 77 -12 77 Z M37.938 108.25 C37.591 108.273 37.591 108.273 35.84 108.391 C34 109 34 109 32.793 110.719 C31.905 113.274 31.588 115.555 31.375 118.25 C31.3 119.142 31.225 120.034 31.148 120.953 C31.099 121.629 31.05 122.304 31 123 C36.269 118.888 41.968 114.064 45 108 C42.617 108 40.31 108.055 37.938 108.25 Z " fill="#F3EEE3" transform="translate(426,92)" />
<path d="M0 0 C2.938 0.375 2.938 0.375 6 1 C6.33 1.66 6.66 2.32 7 3 C4.062 2.625 4.062 2.625 1 2 C0.67 1.34 0.34 0.68 0 0 Z " fill="#F3EEE3" transform="translate(257,184)" />
<path d="M0 0 C2.64 1.646 3.753 3.227 4.816 6.133 C5.004 8.945 5.004 8.945 4.816 11.133 C5.385 10.832 5.953 10.532 6.539 10.223 C11.703 7.68 15.101 6.296 20.816 8.133 C24.031 9.867 27.11 11.666 29.816 14.133 C29.816 15.123 29.816 16.113 29.816 17.133 C30.476 17.133 31.136 17.133 31.816 17.133 C31.691 19.945 31.691 19.945 30.816 23.133 C26.342 25.882 21.68 27.124 16.629 28.32 C15.918 28.498 15.207 28.675 14.475 28.857 C11.517 29.578 8.871 30.133 5.816 30.133 C5.661 42.634 6.213 55.019 6.962 67.494 C7.476 76.16 7.912 84.809 7.953 93.492 C7.956 93.839 7.956 93.839 7.972 95.591 C7.957 102.332 7.139 107.622 2.504 112.633 C-0.596 114.363 -2.625 115.06 -6.184 115.133 C-16.896 110.515 -24.225 101.169 -31.184 92.133 C-31.473 91.77 -31.473 91.77 -32.938 89.934 C-34.184 88.133 -34.184 88.133 -34.184 86.133 C-35.631 84.542 -37.141 83.007 -38.684 81.508 C-39.519 80.691 -40.354 79.873 -41.215 79.031 C-41.865 78.405 -42.514 77.778 -43.184 77.133 C-39.246 75.643 -36.126 76.623 -32.121 77.57 C-25.444 79.133 -25.444 79.133 -22.184 79.133 C-19.703 65.765 -19.015 52.692 -19.184 39.133 C-20.353 39.638 -21.522 40.143 -22.727 40.664 C-24.275 41.321 -25.823 41.977 -27.371 42.633 C-28.14 42.967 -28.909 43.301 -29.701 43.645 C-37.219 46.807 -37.219 46.807 -41.184 46.133 C-47.262 42.839 -51.958 36.074 -55.184 30.133 C-55.184 28.813 -55.184 27.493 -55.184 26.133 C-54.8 26.132 -54.8 26.132 -52.859 26.125 C-42.051 25.748 -32.381 22.891 -22.116 19.668 C-20.184 19.133 -20.184 19.133 -18.184 19.133 C-18.077 12.692 -18.222 6.506 -19.184 0.133 C-19.844 0.133 -20.504 0.133 -21.184 0.133 C-21.184 -1.187 -21.184 -2.507 -21.184 -3.867 C-14.443 -6.114 -6.199 -2.994 0 0 Z " fill="#F3EEE3" transform="translate(217.18359375,205.8671875)" />
<path d="M0 0 C0.786 0.081 1.572 0.162 2.382 0.246 C3.216 0.346 4.05 0.447 4.91 0.551 C5.77 0.648 6.629 0.746 7.515 0.846 C13.134 1.525 18.514 2.557 23.969 4.09 C26.859 4.834 29.742 5.356 32.686 5.837 C47.104 8.235 61.861 12.765 71.973 23.926 C75.537 29.161 76.422 33.566 75.973 39.863 C74.535 46.399 70.464 50.266 64.973 53.863 C64.313 53.863 63.653 53.863 62.973 53.863 C62.643 54.853 62.313 55.843 61.973 56.863 C56.264 58.409 56.264 58.409 53.078 57.062 C50.147 55.23 47.415 53.212 44.699 51.074 C38.106 46.06 32.1 44.204 23.973 42.863 C22.854 42.675 21.735 42.487 20.582 42.293 C19.721 42.151 18.86 42.009 17.973 41.863 C22.794 36.64 22.794 36.64 26.973 35.863 C23.818 32.102 20.752 28.513 16.973 25.363 C14.51 23.311 12.649 21.411 10.598 18.988 C6.493 14.173 1.914 9.932 -3.266 6.289 C-3.847 5.819 -4.428 5.348 -5.027 4.863 C-5.027 4.203 -5.027 3.543 -5.027 2.863 C-5.687 2.533 -6.347 2.203 -7.027 1.863 C-3.859 -0.249 -3.511 -0.375 0 0 Z " fill="#F3EEE3" transform="translate(235.02734375,248.13671875)" />
<path d="M0 0 C0.99 0.33 1.98 0.66 3 1 C2.859 2.459 2.712 3.917 2.562 5.375 C2.481 6.187 2.4 6.999 2.316 7.836 C2 10 2 10 1 12 C1.687 11.567 2.374 11.134 3.082 10.688 C3.983 10.131 4.884 9.574 5.812 9 C6.706 8.443 7.599 7.886 8.52 7.312 C11 6 11 6 14 6 C-0.266 28.324 -0.266 28.324 -5.688 35.688 C-7.484 38.153 -8.943 40.682 -10.375 43.375 C-17.038 55.607 -17.038 55.607 -21.828 57.859 C-24.91 58.059 -27.27 57.231 -30.188 56.25 C-31.254 55.905 -32.32 55.559 -33.418 55.203 C-34.27 54.806 -35.122 54.409 -36 54 C-36.165 53.505 -36.165 53.505 -37 51 C-37.309 50.856 -37.309 50.856 -38.875 50.125 C-41.781 48.587 -42.594 46.946 -44 44 C-45.601 38.739 -44.418 35.835 -42 31 C-41.714 30.335 -41.428 29.67 -41.133 28.984 C-38.215 23.874 -32.317 21.012 -27 19 C-25.325 17.677 -23.659 16.343 -22 15 C-20.39 14.113 -18.779 13.226 -17.168 12.34 C-13.139 9.85 -9.432 6.896 -5.672 4.023 C-3.824 2.624 -1.929 1.286 0 0 Z " fill="#F3EEE3" transform="translate(169,254)" />
<path d="M0 0 C0.33 0.165 0.33 0.165 2 1 C1.67 1.165 1.67 1.165 0 2 C0 1.34 0 0.68 0 0 Z " fill="#F3EEE3" transform="translate(474,261)" />
<path d="M0 0 C2 1 2 1 2 1 Z " fill="#F3EEE3" transform="translate(479,261)" />
</g><g id="headline" transform="translate(884,280) scale(0.7252440725244073) translate(-778,-350)"><path d="M0 0 C1.316 1.973 1.316 1.973 2 4 C0.782 9.682 -2.343 14.868 -5 20 C-4.427 19.892 -4.427 19.892 -1.527 19.344 C0.003 19.062 1.532 18.781 3.062 18.5 C3.815 18.357 4.567 18.214 5.342 18.066 C12.423 16.779 18.742 15.733 25 20 C27.832 24.394 29.583 29 28.562 34.25 C24.16 39.181 13.263 38.799 7.062 39.5 C0.591 40.235 -5.743 41.015 -12.065 42.615 C-14 43 -14 43 -18 43 C-18.206 43.681 -18.412 44.361 -18.625 45.062 C-20.808 49.726 -23.91 53.821 -28.438 56.375 C-32.59 59.008 -35.134 63.061 -38 67 C-38.66 66.01 -39.32 65.02 -40 64 C-40.66 64 -41.32 64 -42 64 C-41.856 62.625 -41.71 61.25 -41.562 59.875 C-41.522 59.492 -41.522 59.492 -41.316 57.555 C-40.961 54.687 -40.491 51.848 -40 49 C-44.029 50.254 -48.018 51.602 -52 53 C-52.63 53.22 -53.261 53.439 -53.91 53.666 C-55.828 54.35 -57.727 55.075 -59.625 55.812 C-60.793 56.252 -61.961 56.692 -63.164 57.145 C-66 59 -66 59 -67.273 62.289 C-67.513 63.514 -67.753 64.738 -68 66 C-68.66 68.189 -69.327 70.377 -70 72.562 C-70.33 73.636 -70.66 74.71 -71 75.816 C-71.965 78.89 -72.972 81.947 -74 85 C-79.567 80.186 -81.309 75.029 -83 68 C-83.797 68.577 -84.593 69.155 -85.414 69.75 C-86.474 70.493 -87.533 71.235 -88.625 72 C-89.669 72.743 -90.713 73.485 -91.789 74.25 C-95.309 76.168 -97.064 76.599 -101 76 C-110.204 70.65 -116.379 59.709 -122 51 C-121.34 50.34 -120.68 49.68 -120 49 C-117.863 49.013 -115.726 49.03 -113.59 49.077 C-109.082 48.943 -104.848 47.751 -100.5 46.625 C-98.719 46.179 -96.938 45.734 -95.156 45.289 C-94.302 45.073 -93.447 44.857 -92.566 44.634 C-88.726 43.685 -84.866 42.841 -81 42 C-80.636 38.23 -80.285 34.459 -79.938 30.688 C-79.834 29.616 -79.73 28.544 -79.623 27.439 C-79.53 26.411 -79.436 25.383 -79.34 24.324 C-79.251 23.376 -79.162 22.428 -79.07 21.452 C-79 19 -79 19 -80 16 C-77.605 14.481 -76.418 13.945 -73.562 14.32 C-72.717 14.586 -71.871 14.851 -71 15.125 C-70.154 15.375 -69.309 15.625 -68.438 15.883 C-65.444 17.255 -63.981 18.344 -62 21 C-62.036 23.799 -62.238 26.044 -62.75 28.75 C-62.863 29.447 -62.977 30.145 -63.094 30.863 C-63.376 32.579 -63.685 34.29 -64 36 C-63.137 35.727 -62.274 35.455 -61.385 35.174 C-58.183 34.164 -54.979 33.158 -51.775 32.155 C-50.388 31.72 -49.002 31.283 -47.616 30.845 C-45.624 30.216 -43.631 29.592 -41.637 28.969 C-41.037 28.78 -41.037 28.78 -38.003 27.826 C-35 27 -35 27 -32 27 C-31.898 26.05 -31.796 25.1 -31.691 24.121 C-30.998 19.265 -29.461 14.711 -27.938 10.062 C-27.656 9.188 -27.374 8.313 -27.084 7.412 C-26.394 5.273 -25.7 3.136 -25 1 C-25.66 1 -26.32 1 -27 1 C-26.058 -1.57 -25.31 -2.796 -23 -4.312 C-15.342 -6.067 -6.675 -4.044 0 0 Z " fill="#F3EEE3" transform="translate(1318,355)" />
<path d="M0 0 C1.773 1.258 1.773 1.258 3 3 C3.145 5.348 3.145 5.348 2.812 8.062 C2.754 8.55 2.754 8.55 2.461 11.016 C1.903 14.629 1.179 18.189 0.41 21.762 C-0.098 24.534 -0.148 27.19 0 30 C0.603 29.844 1.207 29.688 1.828 29.527 C2.627 29.333 3.427 29.138 4.25 28.938 C5.039 28.74 5.828 28.543 6.641 28.34 C9.104 27.985 10.656 28.231 13 29 C11.525 40.426 11.525 40.426 7.938 44.129 C4.987 46.065 2.137 47.645 -1.238 48.699 C-3 50 -3 50 -3.609 53.258 C-3.656 54.534 -3.702 55.81 -3.75 57.125 C-3.778 57.766 -3.778 57.766 -3.922 61.008 C-3.948 61.995 -3.973 62.983 -4 64 C-3.01 63.34 -2.02 62.68 -1 62 C6.244 62.329 12.113 65.051 17.812 69.375 C21.117 73.897 21.392 78.512 20.594 83.871 C19.588 87.478 18.121 89.008 15 91 C11.132 91.211 7.658 90.219 4 89 C2.246 89.777 2.246 89.777 0.438 90.938 C-2.814 93 -2.814 93 -5 93 C-3 88 -3 88 -1.75 85.75 C-0.491 81.133 -1.88 76.241 -4 72 C-6.271 88.146 -5.916 103.895 -5.311 120.153 C-5.193 123.451 -5.094 126.749 -4.996 130.047 C-4.952 131.045 -4.909 132.043 -4.864 133.071 C-4.663 140.127 -5.553 144.737 -9.875 150.5 C-12 152 -12 152 -14.383 151.785 C-20.522 149.943 -25.724 144.168 -28.898 138.715 C-31.777 131.62 -35.314 121.521 -33 114 C-31.35 115.98 -29.7 117.96 -28 120 C-27.34 111.09 -26.68 102.18 -26 93 C-27.98 95.64 -29.96 98.28 -32 101 C-32.66 101 -33.32 101 -34 101 C-34 101.66 -34 102.32 -34 103 C-35.285 104.38 -36.63 105.704 -38 107 C-38.742 107.763 -39.485 108.526 -40.25 109.312 C-46.7 115.615 -52.7 120.738 -61.121 124.176 C-63.112 125.049 -64.971 126.076 -66.875 127.125 C-71.142 129.317 -75.253 129.78 -80 130 C-75.815 124.062 -71.119 118.733 -66.172 113.418 C-64 111 -64 111 -62 108 C-61.34 108 -60.68 108 -60 108 C-59.729 107.408 -59.459 106.817 -59.18 106.207 C-58.01 104.019 -56.803 102.503 -55.125 100.688 C-45.339 89.724 -36.584 77.913 -28 66 C-31.748 67.249 -34.452 69.34 -37.648 71.625 C-40.278 73.162 -41.951 73.853 -45 74 C-49.899 72.229 -52.307 69.854 -55.25 65.625 C-55.915 64.689 -56.58 63.753 -57.266 62.789 C-58.854 60.235 -59.993 57.826 -61 55 C-58.415 53.346 -57.121 52.991 -54.008 53.211 C-48.679 53.286 -44.189 50.805 -39.438 48.625 C-37.604 47.803 -35.769 46.982 -33.934 46.164 C-33.532 45.981 -33.532 45.981 -31.498 45.053 C-28.709 43.877 -25.881 42.926 -23 42 C-22.987 41.549 -22.987 41.549 -22.924 39.265 C-22.828 35.89 -22.729 32.515 -22.628 29.14 C-22.585 27.684 -22.543 26.228 -22.503 24.773 C-22.444 22.67 -22.381 20.567 -22.316 18.465 C-22.28 17.203 -22.243 15.941 -22.205 14.64 C-22.001 11.025 -21.566 7.573 -21 4 C-21.66 4 -22.32 4 -23 4 C-22.812 2.125 -22.812 2.125 -22 0 C-15.758 -3.783 -6.61 -2.438 0 0 Z " fill="#F3EEE3" transform="translate(1049,396)" />
<path d="M0 0 C1.094 2.89 1.252 5.866 1.375 8.938 C1.424 9.772 1.473 10.606 1.523 11.465 C0.757 15.175 -1.18 16.522 -4 19 C-4.521 19.458 -5.042 19.917 -5.579 20.389 C-7.289 21.88 -9.017 23.348 -10.75 24.812 C-15.696 29.01 -20.565 33.267 -25.328 37.672 C-27 39 -27 39 -29 39 C-29.124 39.289 -29.124 39.289 -29.75 40.75 C-31.167 43.3 -32.876 45.018 -35 47 C-34.856 47.32 -34.856 47.32 -34.125 48.938 C-31.038 57.341 -30.636 65.417 -30.48 74.285 C-30.454 75.541 -30.428 76.796 -30.4 78.09 C-30.348 80.733 -30.299 83.376 -30.257 86.02 C-30.202 89.388 -30.125 92.755 -30.041 96.122 C-29.965 99.364 -29.912 102.606 -29.855 105.848 C-29.84 106.447 -29.84 106.447 -29.761 109.481 C-29.681 116.064 -30.037 121.07 -33 127 C-35.672 129.242 -35.672 129.242 -38.75 130.875 C-39.284 131.159 -39.284 131.159 -41.988 132.598 C-45.354 134.165 -48.387 135.189 -52 136 C-53.674 136.649 -55.342 137.313 -57 138 C-56.799 135.99 -56.598 133.98 -56.397 131.97 C-56.218 130.181 -56.039 128.393 -55.861 126.604 C-55.395 121.947 -54.929 117.291 -54.46 112.635 C-54.016 108.228 -53.577 103.821 -53.14 99.414 C-52.961 97.616 -52.781 95.819 -52.599 94.022 C-52.331 91.364 -52.067 88.705 -51.805 86.047 C-51.764 85.65 -51.764 85.65 -51.559 83.644 C-50.916 77.054 -50.377 70.492 -52 64 C-53.106 65.248 -54.21 66.499 -55.312 67.75 C-55.927 68.446 -56.542 69.142 -57.176 69.859 C-59 72 -59 72 -60.605 74.266 C-61.066 74.838 -61.526 75.41 -62 76 C-62.66 76 -63.32 76 -64 76 C-64.227 76.557 -64.454 77.114 -64.688 77.688 C-66.37 80.652 -68.561 82.617 -71 85 C-71.987 86.181 -72.966 87.369 -73.938 88.562 C-78.138 93.516 -83.23 96.176 -89 99 C-89.908 99.577 -90.815 100.155 -91.75 100.75 C-92.493 101.163 -93.235 101.575 -94 102 C-94.66 101.67 -95.32 101.34 -96 101 C-92.808 96.047 -89.607 91.1 -86.397 86.158 C-85.251 84.387 -84.114 82.611 -82.98 80.832 C-78.351 73.68 -73.207 66.991 -67.923 60.317 C-59.1 49.154 -59.1 49.154 -58.75 45.125 C-58.832 44.424 -58.915 43.722 -59 43 C-55.552 40.947 -53.683 39.937 -49.625 40.312 C-48.759 40.539 -47.892 40.766 -47 41 C-46.875 40.715 -46.875 40.715 -46.242 39.273 C-44.824 36.678 -43.138 34.79 -41.125 32.625 C-38.042 29.233 -35.399 25.899 -33 22 C-34.709 22.707 -36.417 23.416 -38.125 24.125 C-38.669 24.35 -38.669 24.35 -41.422 25.488 C-43.867 26.521 -46.287 27.572 -48.703 28.668 C-49.009 28.805 -49.009 28.805 -50.558 29.498 C-52.3 30.279 -54.037 31.071 -55.773 31.863 C-59.176 33.062 -61.428 33.456 -65 33 C-70.061 29.956 -74.322 25.24 -77 20 C-76.59 17.824 -76.59 17.824 -76 16 C-75.339 16.041 -74.679 16.083 -73.998 16.125 C-66.479 16.389 -60.533 14.984 -53.5 12.438 C-52.464 12.078 -51.428 11.718 -50.361 11.347 C-42.962 8.759 -35.612 6.035 -28.262 3.312 C-26.175 2.54 -24.088 1.769 -22 1 C-21.492 0.812 -21.492 0.812 -18.922 -0.137 C-12.238 -2.402 -6.689 -2.23 0 0 Z " fill="#F3EEE3" transform="translate(1151,411)" />
<path d="M0 0 C7.468 0.262 12.704 2.704 18 8 C19.295 10.591 19.303 12.118 19 15 C17.469 17.457 17.469 17.457 15.5 19.812 C14.85 20.603 14.201 21.393 13.531 22.207 C13.279 22.503 13.279 22.503 12 24 C13.316 24.084 14.632 24.168 15.988 24.254 C23.559 25.013 30.841 27.041 38.188 28.938 C39.624 29.302 41.061 29.666 42.498 30.029 C47.62 31.33 52.736 32.636 57.815 34.098 C60.356 34.818 62.575 35.285 65.188 35.5 C68.539 35.939 70.122 36.511 73 38 C73.866 38 74.733 38 75.625 38 C76.409 38 77.193 38 78 38 C78.66 38.66 79.32 39.32 80 40 C82.164 40.414 82.164 40.414 84.625 40.625 C85.442 40.7 86.26 40.775 87.102 40.852 C87.728 40.901 88.355 40.95 89 41 C89.33 41.99 89.66 42.98 90 44 C90.701 43.773 91.402 43.546 92.125 43.312 C95.985 42.893 97.553 44.182 101 46 C117.214 52.197 117.214 52.197 122.828 50.422 C125.914 49.822 128.236 50.619 131.25 51.438 C132.328 51.725 133.405 52.012 134.516 52.309 C135.335 52.537 136.155 52.765 137 53 C136.01 53.33 135.02 53.66 134 54 C136.6 57.33 139.111 57.618 143.188 58.188 C143.731 58.267 143.731 58.267 146.48 58.668 C147.312 58.778 148.143 58.887 149 59 C148.67 59.165 148.67 59.165 147 60 C147 60.99 147 61.98 147 63 C146.031 63.639 145.061 64.279 144.062 64.938 C141 67 141 67 140.312 69.062 C140.261 69.382 140.261 69.382 140 71 C139 72 138 73 137 74 C136.868 74.36 136.868 74.36 136.199 76.18 C134.69 79.729 132.569 82.64 130.25 85.688 C129.832 86.268 129.415 86.849 128.984 87.447 C127.021 90.037 125.09 91.942 122.355 93.699 C116.889 94.189 112.838 91.592 108.062 89.125 C107.034 88.611 106.006 88.097 104.946 87.568 C101.954 86.065 98.976 84.535 96 83 C94.609 82.3 93.217 81.6 91.824 80.902 C79.689 74.718 67.598 67.571 57 59 C55.082 57.761 53.143 56.555 51.188 55.375 C50.024 54.67 48.862 53.964 47.699 53.258 C47.396 53.074 47.396 53.074 45.861 52.142 C44.007 51.004 42.168 49.846 40.332 48.68 C29.426 41.756 18.254 35.339 7 29 C6.863 29.294 6.863 29.294 6.172 30.781 C5.031 32.941 3.803 34.632 2.242 36.504 C1.703 37.156 1.164 37.809 0.609 38.481 C0.037 39.168 -0.536 39.855 -1.125 40.562 C-5.621 46.024 -9.941 51.543 -14.055 57.301 C-19.746 65.197 -25.769 72.837 -32 80.312 C-32.469 80.882 -32.938 81.452 -33.421 82.039 C-34.569 83.399 -35.779 84.705 -37 86 C-37.66 86 -38.32 86 -39 86 C-39.124 86.373 -39.124 86.373 -39.75 88.258 C-44.515 98.712 -59.096 105.662 -68.812 110.875 C-69.542 111.269 -70.272 111.662 -71.023 112.068 C-74.663 113.975 -77.863 115.496 -82 116 C-77.871 109.136 -73.395 102.878 -68.25 96.742 C-65.363 93.224 -62.728 89.554 -60.078 85.855 C-57.88 82.835 -55.606 79.886 -53.312 76.938 C-48.663 70.951 -44.236 64.816 -39.82 58.656 C-36.604 54.183 -33.325 49.782 -29.938 45.438 C-24.493 38.432 -19.41 31.186 -14.335 23.911 C-13.159 22.227 -11.974 20.549 -10.789 18.871 C-10.178 18.006 -9.567 17.141 -8.938 16.25 C-8.431 15.533 -7.924 14.817 -7.402 14.078 C-4.526 9.815 -2.562 5.908 -1 1 C-0.67 0.67 -0.34 0.34 0 0 Z M125 52 C125.33 52.66 125.66 53.32 126 54 C127.32 53.67 128.64 53.34 130 53 C128.35 52.67 126.7 52.34 125 52 Z " fill="#F3EEE3" transform="translate(1261,415)" />
<path d="M0 0 C0.819 -0.014 1.637 -0.028 2.48 -0.043 C5.063 0.212 6.639 0.782 8.812 2.188 C9.938 4.688 9.938 4.688 10.812 7.188 C11.142 7.517 11.142 7.517 12.812 9.188 C12.812 10.178 12.812 11.168 12.812 12.188 C13.122 12.311 13.122 12.311 14.688 12.938 C17.278 14.461 17.937 15.322 18.812 18.188 C18.875 21.125 18.875 21.125 17.812 24.188 C12.553 28.685 7.889 30.308 1.188 31.688 C-0.688 32.105 -2.563 32.523 -4.438 32.941 C-4.914 33.045 -4.914 33.045 -7.328 33.567 C-25.872 37.592 -43.862 42.635 -61.598 49.402 C-64.188 50.188 -64.188 50.188 -66.188 49.188 C-64.689 48.122 -63.189 47.06 -61.688 46 C-60.852 45.408 -60.017 44.817 -59.156 44.207 C-55.563 41.762 -51.887 39.468 -48.188 37.188 C-79.832 45.795 -79.832 45.795 -93.188 50.188 C-93.689 50.351 -93.689 50.351 -96.226 51.176 C-131.816 62.764 -131.816 62.764 -145.188 70.965 C-149.014 72.525 -151.217 72.207 -155.188 71.188 C-162.747 67.082 -165.802 59.68 -169.188 52.188 C-170.284 50.017 -171.388 47.85 -172.5 45.688 C-174.117 42.53 -175.489 39.674 -176.188 36.188 C-171.792 35.319 -167.784 35.166 -163.312 35.312 C-155.028 35.412 -147.245 33.991 -139.188 32.188 C-138.324 31.999 -137.461 31.811 -136.572 31.618 C-112.592 26.374 -88.812 20.141 -65.113 13.754 C-14.458 0.115 -14.458 0.115 0 0 Z " fill="#F3EEE3" transform="translate(954.1875,449.8125)" />
<path d="M0 0 C7.232 -0.424 14.299 0.012 21 3 C23.864 5.932 24 6.722 24 11 C24.32 10.814 24.32 10.814 25.938 9.875 C30.728 8.506 35.572 9.786 40 12 C40.633 13.848 40.633 13.848 41.125 16.062 C41.293 16.796 41.46 17.529 41.633 18.285 C41.754 18.851 41.875 19.417 42 20 C38.722 23.052 35.353 24.844 31.301 26.645 C30.309 27.088 29.316 27.531 28.294 27.988 C27.537 28.322 26.78 28.656 26 29 C25.94 34.854 25.901 40.708 25.875 46.562 C25.87 47.439 25.866 48.316 25.861 49.219 C25.824 58.548 25.873 67.835 26.586 77.141 C26.639 77.843 26.693 78.545 26.747 79.269 C27.005 82.542 27.301 85.808 27.64 89.074 C28.305 96.596 27.887 102.38 24 109 C21.065 111.776 19.706 111.987 15.688 112.062 C6.383 109.382 -0.492 101.484 -5.18 93.293 C-11.082 82.57 -11.082 82.57 -12 78 C-12.165 77.67 -12.165 77.67 -13 76 C-12.154 76.289 -11.309 76.577 -10.438 76.875 C-6.98 78.007 -3.5 79.009 0 80 C1.851 66.616 2.247 53.502 2 40 C0.998 40.589 -0.003 41.178 -1.035 41.785 C-2.377 42.545 -3.72 43.304 -5.062 44.062 C-5.719 44.452 -6.376 44.842 -7.053 45.244 C-11.722 47.843 -14.641 48.485 -20 47 C-24.225 43.659 -26.759 39.828 -29 35 C-28.75 32.062 -28.75 32.062 -28 30 C-27.424 30.029 -27.424 30.029 -24.508 30.176 C-19.84 30.173 -16.159 28.933 -11.875 27.188 C-11.537 27.057 -11.537 27.057 -9.824 26.396 C-6.669 25.161 -3.663 23.83 -0.633 22.301 C2 21 2 21 4 21 C3.744 18.748 3.47 16.499 3.188 14.25 C3.037 12.997 2.886 11.744 2.73 10.453 C2.003 7.012 1.107 5.68 -1 3 C-0.67 2.01 -0.34 1.02 0 0 Z " fill="#F3EEE3" transform="translate(1266,459)" />
<path d="M0 0 C2 1 2 1 2 1 Z " fill="#F3EEE3" transform="translate(1374,463)" />
<path d="M0 0 C0.43 0.039 0.43 0.039 2.604 0.237 C17.443 1.737 17.443 1.737 21.875 5.688 C26.205 11.86 28.289 19.65 27 27.125 C25.375 30.125 25.375 30.125 23 32.125 C18.228 33.442 15.664 32.93 11.25 30.812 C4.996 28.008 -0.94 26.769 -7.66 25.703 C-10 25.125 -10 25.125 -12 23.125 C-10.68 21.805 -9.36 20.485 -8 19.125 C-8.645 18.747 -9.291 18.369 -9.956 17.979 C-12.889 16.259 -15.819 14.536 -18.75 12.812 C-19.766 12.218 -20.782 11.623 -21.828 11.01 C-22.808 10.433 -23.787 9.856 -24.797 9.262 C-25.698 8.733 -26.598 8.204 -27.526 7.659 C-29.804 6.246 -31.96 4.865 -34 3.125 C-34 2.465 -34 1.805 -34 1.125 C-23.517 -2.958 -11.005 -1.014 0 0 Z " fill="#F3EEE3" transform="translate(1160,472.875)" />
<path d="M0 0 C4.706 2.527 9.115 5.911 10.957 11.051 C12.026 24.722 3.855 39.603 -4.348 50.082 C-7.692 53.965 -11.323 57.531 -15.043 61.051 C-15.712 61.69 -16.381 62.33 -17.07 62.988 C-18.918 64.676 -18.918 64.676 -22.043 67.051 C-23.033 66.721 -24.023 66.391 -25.043 66.051 C-24.825 65.625 -24.825 65.625 -23.723 63.473 C-18.526 53.007 -15.159 42.294 -12.043 31.051 C-12.956 31.243 -13.868 31.435 -14.809 31.633 C-19.026 32.178 -21.318 30.985 -25.043 29.051 C-27.499 26.595 -27.449 25.707 -27.605 22.301 C-27.535 16.995 -26.066 13.086 -23.73 8.426 C-23.422 7.81 -23.114 7.194 -22.797 6.56 C-20.454 2.188 -20.454 2.188 -17.043 1.051 C-17.043 0.391 -17.043 -0.269 -17.043 -0.949 C-11.131 -2.92 -5.667 -2.358 0 0 Z " fill="#F3EEE3" transform="translate(1457.04296875,489.94921875)" />
<path d="M0 0 C5.823 -0.177 10.96 0.369 16.625 1.688 C17.402 1.865 18.179 2.042 18.979 2.224 C41.382 7.531 41.382 7.531 46.512 13.867 C47.701 15.898 48.874 17.933 50 20 C50.227 20.402 50.227 20.402 51.375 22.438 C52.345 26.417 52 30.044 51 34 C49.188 36.875 49.188 36.875 47 39 C46.443 39.619 45.886 40.237 45.312 40.875 C41.409 42.774 38.093 42.224 34 41 C30.894 39.344 27.936 37.523 24.953 35.656 C20.976 33.426 17.483 32.672 13 32 C14.32 30.35 15.64 28.7 17 27 C13.755 17.626 6.234 9.606 -1 3 C-0.67 2.01 -0.34 1.02 0 0 Z " fill="#F3EEE3" transform="translate(1297,504)" />
<path d="M0 0 C0.33 0.66 0.66 1.32 1 2 C1.66 2 2.32 2 3 2 C3 5.3 3 8.6 3 12 C5.97 9.03 8.94 6.06 12 3 C12.165 3.33 12.165 3.33 13 5 C12.215 7.258 12.215 7.258 10.938 10.125 C8.772 15.118 6.806 20.141 4.938 25.25 C3.18 30.019 1.34 34.641 -1.062 39.125 C-2.641 42.282 -3.833 45.595 -5.07 48.898 C-6 51 -6 51 -8 53 C-13.532 53.79 -17.427 51.866 -22 49 C-26.227 45.784 -28.19 42.635 -29.102 37.465 C-28.801 30.171 -22.732 24.374 -17.672 19.672 C-15.92 17.92 -14.579 16.108 -13.188 14.062 C-12.466 13.052 -11.744 12.041 -11 11 C-10.34 11 -9.68 11 -9 11 C-8.753 10.443 -8.505 9.886 -8.25 9.312 C-6.102 5.34 -3.761 2.507 0 0 Z " fill="#F3EEE3" transform="translate(1240,513)" />
<path d="M0 0 C6.955 1.777 12.901 5.142 17.508 10.641 C18.927 13.479 18.776 15.488 18.508 18.641 C17.109 21.297 17.109 21.297 15.133 24.141 C11.282 29.953 8.424 36.011 5.633 42.391 C2.485 49.524 -0.841 56.422 -4.805 63.141 C-5.201 63.816 -5.597 64.491 -6.005 65.187 C-8.511 69.331 -11.206 73.074 -14.492 76.641 C-15.152 76.641 -15.812 76.641 -16.492 76.641 C-16.492 75.321 -16.492 74.001 -16.492 72.641 C-17.152 72.641 -17.812 72.641 -18.492 72.641 C-19.152 71.321 -19.812 70.001 -20.492 68.641 C-21.589 69.207 -22.686 69.772 -23.816 70.355 C-25.271 71.097 -26.725 71.838 -28.18 72.578 C-28.54 72.765 -28.54 72.765 -30.365 73.709 C-34.057 75.58 -37.329 77.123 -41.492 77.641 C-41.822 79.951 -42.152 82.261 -42.492 84.641 C-44.18 85.453 -44.18 85.453 -46.492 85.641 C-53.117 80.01 -57.328 74.232 -58.492 65.641 C-58.68 62.504 -58.747 59.368 -58.809 56.227 C-58.829 55.335 -58.85 54.442 -58.872 53.523 C-58.937 50.688 -58.996 47.852 -59.055 45.016 C-59.098 43.102 -59.142 41.187 -59.186 39.273 C-59.265 35.77 -59.343 32.267 -59.416 28.763 C-59.431 28.062 -59.446 27.36 -59.461 26.638 C-59.492 24.639 -59.492 22.64 -59.492 20.641 C-56.911 19.35 -54.998 19.508 -52.117 19.516 C-51.161 19.513 -50.204 19.51 -49.219 19.508 C-46.492 19.641 -46.492 19.641 -44.559 20.391 C-41.084 20.811 -38.605 18.596 -35.805 16.766 C-29.397 12.734 -22.863 9.105 -16.128 5.649 C-13.316 4.194 -10.756 2.848 -8.262 0.883 C-5.434 -1.103 -3.287 -0.499 0 0 Z M-9.492 14.641 C-12.159 15.889 -14.826 17.14 -17.492 18.391 C-17.864 18.565 -17.864 18.565 -19.746 19.445 C-24.098 21.489 -28.406 23.59 -32.668 25.817 C-34.586 26.683 -36.44 27.191 -38.492 27.641 C-39.528 32.691 -39.595 37.515 -39.492 42.641 C-38.814 42.266 -38.136 41.89 -37.438 41.504 C-34.463 39.869 -31.479 38.253 -28.492 36.641 C-27.586 36.142 -26.68 35.643 -25.746 35.129 C-24.899 34.679 -24.052 34.229 -23.18 33.766 C-22.42 33.356 -21.661 32.946 -20.879 32.523 C-17.977 31.45 -15.562 31.49 -12.492 31.641 C-11.796 29.184 -11.11 26.726 -10.43 24.266 C-10.231 23.567 -10.031 22.868 -9.826 22.148 C-8.379 16.867 -8.379 16.867 -9.492 14.641 Z M-28.465 52.523 C-29.585 53.702 -30.703 54.882 -31.82 56.062 C-34.432 58.528 -37.304 60.014 -40.492 61.641 C-40.492 62.961 -40.492 64.281 -40.492 65.641 C-35.845 64.224 -31.607 62.305 -27.305 60.078 C-20.852 56.761 -20.852 56.761 -17.492 55.641 C-16.003 51.566 -15.229 47.975 -15.492 43.641 C-19.57 43.641 -25.639 49.826 -28.465 52.523 Z M-39.492 50.641 C-40.636 52.928 -40.596 54.233 -40.555 56.766 C-40.534 58.044 -40.513 59.323 -40.492 60.641 C-36.248 56.76 -33.383 52.598 -30.492 47.641 C-33.842 47.641 -36.509 49.23 -39.492 50.641 Z " fill="#F3EEE3" transform="translate(1050.4921875,562.359375)" />
<path d="M0 0 C2.792 2.222 4.536 3.692 5.73 7.059 C6.13 11.421 5.136 15.36 4.25 19.625 C2.496 28.59 1.235 37.544 0.25 46.625 C0.123 47.792 -0.005 48.96 -0.136 50.163 C-0.589 54.475 -1 58.66 -1 63 C0.249 60.502 0.215 58.537 0.375 55.75 C0.766 51.234 1.242 47.743 4 44 C6.125 42.875 6.125 42.875 9 43 C16.043 45.239 21.764 48.682 25.938 54.875 C27.272 58.8 27.176 61.03 26 65 C22.36 69.644 17.517 69.742 12.012 70.5 C8.041 71.159 4.716 72.474 1 74 C-0.328 74.353 -1.661 74.692 -3 75 C-2.979 76.279 -2.959 77.558 -2.938 78.875 C-2.932 82.151 -3.108 85.312 -3.5 88.562 C-4.038 93.446 -4.029 98.258 -3.98 103.166 C-3.925 113.119 -4.509 123.062 -5 133 C-3.558 130.116 -3.412 127.176 -3 124 C-2.67 124 -2.34 124 -2 124 C-0.841 131.938 -0.917 139.81 -0.982 147.809 C-1.103 163.715 -0.864 179.545 0.324 195.414 C0.375 196.099 0.425 196.785 0.477 197.491 C0.612 199.264 0.762 201.037 0.914 202.809 C1.053 207.981 0.985 211.776 -2.312 215.875 C-6.265 219 -6.265 219 -9 219 C-20.923 213.522 -29.388 200.379 -35 189 C-36.256 185.516 -36.156 184.347 -34.609 180.911 C-32.701 176.631 -32.039 172.389 -31.41 167.77 C-31.286 166.895 -31.161 166.021 -31.033 165.12 C-29.784 156.002 -29.046 146.867 -28.438 137.688 C-28.376 136.804 -28.315 135.92 -28.252 135.01 C-27.184 119.599 -26.48 104.181 -25.887 88.746 C-25.242 71.985 -24.24 55.268 -22.965 38.544 C-22.038 26.013 -21.838 13.563 -22 1 C-22.99 0.67 -23.98 0.34 -25 0 C-24.25 -1.938 -24.25 -1.938 -23 -4 C-15.393 -6.677 -6.809 -3.553 0 0 Z " fill="#F3EEE3" transform="translate(949,584)" />
<path d="M0 0 C2.194 3.291 2.205 3.751 1.758 7.449 C1.661 8.297 1.564 9.144 1.465 10.018 C1.409 10.458 1.409 10.458 1.125 12.688 C1.021 13.58 0.916 14.473 0.809 15.393 C0.549 17.596 0.279 19.799 0 22 C0.869 21.555 1.738 21.111 2.633 20.652 C3.209 20.369 3.209 20.369 6.125 18.938 C7.262 18.369 8.399 17.801 9.57 17.215 C14.055 15.626 16.773 16.215 21.16 17.762 C26.004 20.119 29.053 22.437 32 27 C31.859 29.061 31.859 29.061 31 31 C25.042 35.116 16.869 36.689 10 38.688 C7.937 39.293 5.874 39.901 3.812 40.512 C2.911 40.774 2.01 41.037 1.082 41.307 C-1 42 -1 42 -2 43 C-3.449 54.25 -3.102 65.685 -3 77 C0.979 71.491 4.782 65.891 8.375 60.125 C9.043 59.055 9.71 57.985 10.398 56.883 C11.732 54.483 12.548 52.676 13 50 C12.34 50 11.68 50 11 50 C11.915 47.712 12.655 46.266 14.625 44.75 C22.552 42.247 30.585 44.922 38 48 C40.182 49.547 41.384 50.845 43 53 C42.531 56.207 41.698 58.365 39.273 60.57 C36.574 62.49 33.816 64.254 31 66 C30.29 66.441 29.58 66.882 28.849 67.336 C22.669 71.167 16.452 74.933 10.215 78.668 C8.089 79.947 5.978 81.247 3.875 82.562 C3.212 82.976 2.55 83.39 1.867 83.816 C0.23 84.854 -1.387 85.925 -3 87 C-3 87.66 -3 88.32 -3 89 C-2.22 88.713 -1.44 88.426 -0.636 88.13 C2.323 87.044 5.285 85.966 8.249 84.892 C10.136 84.206 12.02 83.512 13.904 82.818 C34.746 75.285 34.746 75.285 45 76 C44.886 78.084 44.758 80.167 44.625 82.25 C44.555 83.41 44.486 84.57 44.414 85.766 C43.787 90.664 43.787 90.664 42 93 C36.003 97.428 29.612 98.288 22.375 99.5 C13.338 101.114 4.65 102.866 -4 106 C-4.33 109.3 -4.66 112.6 -5 116 C-3.991 116.077 -2.981 116.155 -1.941 116.234 C4.192 117.004 10.052 118.902 15.966 120.637 C32.259 125.401 48.691 130.131 65.625 131.875 C74.761 132.838 83.574 135.215 92.448 137.525 C99.987 139.445 107.224 140.642 115 141 C113.625 142.5 113.625 142.5 112 144 C111.34 144 110.68 144 110 144 C110 144.66 110 145.32 110 146 C109.031 146.268 108.061 146.536 107.062 146.812 C106.557 147.008 106.557 147.008 104 148 C103.67 148.99 103.34 149.98 103 151 C101.441 152.605 101.441 152.605 99.562 154.188 C98.945 154.717 98.328 155.247 97.691 155.793 C96 157 96 157 94 157 C93.732 157.804 93.464 158.609 93.188 159.438 C92.796 160.283 92.404 161.129 92 162 C91.01 162.33 90.02 162.66 89 163 C89 163.66 89 164.32 89 165 C87.539 166.402 87.539 166.402 85.625 167.938 C83.161 169.92 81.795 171.307 80 174 C76.528 176.411 73.155 178.169 69 179 C63.819 177.465 60.083 174.74 55.867 171.418 C54 170 54 170 51 168.312 C50.34 167.879 49.68 167.446 49 167 C49 166.01 49 165.02 49 164 C48.196 163.732 47.391 163.464 46.562 163.188 C45.717 162.796 44.871 162.404 44 162 C43.67 161.01 43.34 160.02 43 159 C42.216 158.918 41.432 158.835 40.625 158.75 C39.759 158.503 38.892 158.255 38 158 C37.333 156.667 36.667 155.333 36 154 C33.562 153.375 33.562 153.375 31 153 C30.01 152.34 29.02 151.68 28 151 C28 150.34 28 149.68 28 149 C26.68 148.67 25.36 148.34 24 148 C24.33 147.34 24.66 146.68 25 146 C22.348 144.925 19.716 143.905 17 143 C16.67 142.01 16.34 141.02 16 140 C14.478 139.101 12.947 138.214 11.387 137.383 C8.155 135.511 5.122 133.388 2.062 131.25 C1.766 131.043 1.766 131.043 0.269 129.998 C-1.156 129.001 -2.578 128.001 -4 127 C-4.098 141.971 -4.139 156.914 -3.5 171.875 C-3.139 180.811 -2.814 189.744 -2.688 198.688 C-2.658 199.709 -2.628 200.73 -2.598 201.783 C-2.548 208.022 -3.301 212.849 -7 218 C-8.905 219.909 -10.808 221.406 -13 223 C-17.413 221.61 -19.663 219.586 -22.688 216.125 C-23.071 215.693 -23.071 215.693 -25.012 213.508 C-27 211 -27 211 -28.082 208.742 C-29 207 -29 207 -32 206 C-33.5 203.891 -33.5 203.891 -35 201.25 C-35.495 200.389 -35.99 199.528 -36.5 198.641 C-36.995 197.769 -37.49 196.898 -38 196 C-38.273 195.554 -38.273 195.554 -39.652 193.297 C-40.942 191.099 -41.462 189.46 -42 187 C-43.411 182.876 -45.511 179.568 -48 176 C-47.67 175.34 -47.34 174.68 -47 174 C-46.504 174.326 -46.007 174.652 -45.496 174.988 C-41.114 177.807 -36.844 180.083 -32 182 C-30.386 177.159 -30.325 172.131 -29.938 167.062 C-29.848 165.906 -29.759 164.75 -29.667 163.559 C-28.929 153.357 -28.792 143.222 -29 133 C-29.482 133.65 -29.964 134.299 -30.461 134.969 C-31.093 135.804 -31.724 136.639 -32.375 137.5 C-33.001 138.335 -33.628 139.171 -34.273 140.031 C-34.558 140.356 -34.558 140.356 -36 142 C-36.66 142 -37.32 142 -38 142 C-38.227 142.722 -38.454 143.444 -38.688 144.188 C-40.293 147.627 -42.221 149.402 -45 152 C-52.647 159.461 -52.647 159.461 -55.688 163.25 C-57.945 165.934 -60.238 167.859 -63 170 C-63.749 170.773 -64.498 171.547 -65.27 172.344 C-75.615 182.408 -93.579 194.767 -108 197 C-106.577 195.103 -105.154 193.206 -103.727 191.312 C-102.583 189.781 -101.452 188.239 -100.336 186.688 C-99.813 185.966 -99.289 185.244 -98.75 184.5 C-98.27 183.83 -97.791 183.159 -97.297 182.469 C-96.869 181.984 -96.441 181.499 -96 181 C-95.34 181 -94.68 181 -94 181 C-93.74 180.43 -93.479 179.86 -93.211 179.273 C-88.751 170.901 -81.254 163.744 -75.07 156.57 C-71.763 152.733 -68.497 148.861 -65.235 144.985 C-62.683 141.962 -60.103 138.966 -57.492 135.992 C-56.901 135.317 -56.31 134.642 -55.701 133.947 C-54.55 132.636 -53.396 131.328 -52.239 130.024 C-51.715 129.427 -51.192 128.83 -50.652 128.215 C-50.188 127.69 -49.724 127.165 -49.246 126.625 C-47.881 124.845 -46.942 123.031 -46 121 C-47.66 121.83 -49.32 122.66 -50.979 123.49 C-52.42 124.21 -53.863 124.928 -55.306 125.644 C-58.888 127.424 -62.449 129.226 -65.969 131.125 C-66.586 131.452 -67.203 131.778 -67.839 132.115 C-69.536 133.016 -71.226 133.931 -72.914 134.848 C-76.563 136.21 -78.316 136.221 -82 135 C-84.23 133.109 -84.23 133.109 -86.188 130.75 C-86.841 129.982 -87.495 129.213 -88.168 128.422 C-91.763 123.669 -91.763 123.669 -93 121 C-92.071 118.847 -92.071 118.847 -91 117 C-90.392 117.038 -89.784 117.077 -89.157 117.116 C-82.45 117.355 -77.384 116.149 -71.188 113.688 C-70.272 113.34 -69.356 112.993 -68.413 112.635 C-65.269 111.439 -62.135 110.219 -59 109 C-54.428 107.24 -49.851 105.495 -45.273 103.75 C-43.333 103.008 -41.396 102.258 -39.46 101.507 C-38.273 101.051 -37.086 100.595 -35.863 100.125 C-34.804 99.715 -33.745 99.305 -32.654 98.883 C-30 98 -30 98 -27 98 C-27 82.49 -27 66.98 -27 51 C-29.145 51.825 -29.145 51.825 -40 56 C-50.034 57.067 -50.034 57.067 -54.875 54 C-58.492 50.976 -60.785 47.113 -63 43 C-60.453 40.453 -59.649 40.837 -56.125 40.812 C-47.226 40.27 -39.124 36.779 -30.873 33.627 C-29 33 -29 33 -27 33 C-27.33 23.76 -27.66 14.52 -28 5 C-28.33 4.835 -28.33 4.835 -30 4 C-29.5 2.188 -29.5 2.188 -28 0 C-19.067 -4.632 -8.96 -4.48 0 0 Z " fill="#F3EEE3" transform="translate(1380,583)" />
<path d="M0 0 C2.05 1.752 3.52 3.319 4.91 5.633 C5.322 11.329 3.336 15.806 -0.09 20.195 C-6.761 25.616 -15.566 26.097 -23.825 27.359 C-30.713 28.457 -37.371 30.172 -44.072 32.095 C-49.89 33.733 -49.89 33.733 -52.09 32.633 C-49.45 30.653 -46.81 28.673 -44.09 26.633 C-54.723 28.901 -64.555 32.719 -74.654 36.684 C-78.12 38.034 -81.604 39.336 -85.09 40.633 C-83.97 41.043 -82.849 41.453 -81.695 41.875 C-80.223 42.419 -78.75 42.963 -77.277 43.508 C-76.539 43.777 -75.801 44.047 -75.041 44.324 C-74.329 44.588 -73.617 44.853 -72.883 45.125 C-72.228 45.366 -71.574 45.607 -70.899 45.855 C-69.09 46.633 -69.09 46.633 -66.09 48.633 C-66.546 55.088 -67.052 61.529 -67.773 67.961 C-69.128 80.259 -70.154 92.481 -70.59 104.848 C-70.628 105.914 -70.666 106.981 -70.706 108.08 C-70.89 113.394 -71.05 118.707 -71.179 124.022 C-71.552 136.942 -73.111 149.053 -76.09 161.633 C-76.75 161.633 -77.41 161.633 -78.09 161.633 C-78.75 166.913 -79.41 172.193 -80.09 177.633 C-84.211 172.138 -84.197 170.259 -84.09 163.633 C-84.75 164.953 -85.41 166.273 -86.09 167.633 C-86.764 166.366 -87.429 165.094 -88.09 163.82 C-88.461 163.113 -88.832 162.405 -89.215 161.676 C-90.09 159.633 -90.09 159.633 -90.09 156.633 C-90.75 156.633 -91.41 156.633 -92.09 156.633 C-99.338 137.114 -97.198 118.123 -95.884 97.704 C-95.253 87.838 -94.718 77.971 -94.362 68.09 C-94.306 66.586 -94.244 65.083 -94.177 63.579 C-94.084 61.486 -94.012 59.394 -93.945 57.301 C-93.9 56.107 -93.856 54.914 -93.809 53.684 C-94.116 50.346 -94.823 49.04 -97.09 46.633 C-109.419 52.573 -121.31 59.106 -132.895 66.398 C-135.888 68.082 -137.7 68.117 -141.09 67.633 C-150.401 62.977 -156.064 53.904 -160.09 44.633 C-159.43 43.973 -158.77 43.313 -158.09 42.633 C-156.305 42.648 -156.305 42.648 -154.027 42.883 C-149.174 42.962 -145.171 41.851 -140.672 40.18 C-139.941 39.915 -139.211 39.65 -138.458 39.377 C-129.247 36.009 -120.113 32.43 -110.978 28.859 C-105.582 26.751 -100.182 24.653 -94.781 22.555 C-93.703 22.136 -92.624 21.716 -91.513 21.285 C-81.617 17.442 -71.705 13.642 -61.777 9.883 C-61.021 9.596 -60.265 9.31 -59.486 9.015 C-49.901 5.389 -40.296 1.838 -30.577 -1.417 C-27.414 -2.485 -24.888 -3.502 -22.09 -5.367 C-13.808 -7.654 -6.799 -4.714 0 0 Z " fill="#F3EEE3" transform="translate(1282.08984375,608.3671875)" />
<path d="M0 0 C5.729 2.486 11.484 5.64 16 10 C16 10.66 16 11.32 16 12 C16.66 12 17.32 12 18 12 C20.282 14.789 20.969 16.723 21.375 20.312 C19.493 25.36 16.474 26.911 12.082 29.848 C9.058 31.959 6.485 34.215 3.812 36.75 C-0.707 40.956 -5.432 44.739 -10.375 48.438 C-10.714 48.692 -10.714 48.692 -12.43 49.978 C-21.922 57 -21.922 57 -25 57 C-25 57.66 -25 58.32 -25 59 C-26.437 59.648 -27.874 60.293 -29.312 60.938 C-29.713 61.117 -29.713 61.117 -31.738 62.027 C-34 63 -34 63 -37 64 C-37 63.34 -37 62.68 -37 62 C-37.66 62.33 -37.66 62.33 -41 64 C-41 63.01 -41 62.02 -41 61 C-48.56 63.297 -55.474 66.467 -62.562 69.938 C-63.647 70.463 -64.732 70.988 -65.85 71.529 C-70.449 73.761 -75.032 76.013 -79.578 78.352 C-83.176 80.085 -85.077 80.61 -89 80 C-91.812 78.688 -91.812 78.688 -94 77 C-94.33 76.01 -94.66 75.02 -95 74 C-92.313 69.689 -89.373 67.884 -84.812 65.812 C-79.096 63.193 -79.096 63.193 -78 61 C-78.413 58.882 -78.905 56.779 -79.438 54.688 C-80.458 50.673 -81.195 47.149 -81 43 C-82.048 43.505 -83.096 44.011 -84.176 44.531 C-85.555 45.188 -86.933 45.844 -88.312 46.5 C-89.003 46.834 -89.693 47.168 -90.404 47.512 C-95.66 50 -95.66 50 -99 50 C-98.783 51.134 -98.567 52.269 -98.344 53.438 C-98.062 54.958 -97.781 56.479 -97.5 58 C-97.357 58.744 -97.214 59.488 -97.066 60.254 C-96.154 65.252 -95.691 69.917 -96 75 C-98 77.5 -98 77.5 -100 79 C-107.117 76.953 -112.135 75.276 -115.973 68.535 C-118.382 63.589 -119.491 58.482 -120.625 53.125 C-121.027 51.251 -121.436 49.379 -121.852 47.508 C-122.025 46.689 -122.199 45.871 -122.377 45.028 C-123 43 -123 43 -125 41 C-124.75 38.938 -124.75 38.938 -124 37 C-119.323 34.662 -113.059 35.778 -108.125 36.812 C-105.224 37.915 -103.403 39.101 -101 41 C-100.399 40.556 -99.798 40.111 -99.179 39.653 C-93.215 35.346 -87.225 31.852 -80.562 28.75 C-79.577 28.287 -78.592 27.823 -77.577 27.346 C-59.716 19.059 -41.512 11.894 -22.755 5.904 C-2.592 -0.555 -2.592 -0.555 0 0 Z M-24.562 19.25 C-24.919 19.362 -24.919 19.362 -26.721 19.93 C-32.254 21.701 -37.662 23.703 -43 26 C-42.484 26.392 -41.969 26.784 -41.438 27.188 C-40 29 -40 29 -40.164 31.402 C-41.004 34.011 -42.012 36.188 -43.375 38.562 C-43.795 39.306 -44.215 40.05 -44.648 40.816 C-46 43 -46 43 -47.664 45.152 C-49 47 -49 47 -49 49 C-46.566 48.529 -44.145 48.035 -41.734 47.453 C-40.935 47.262 -40.136 47.072 -39.312 46.875 C-38.546 46.687 -37.779 46.499 -36.988 46.305 C-35 46 -35 46 -33 47 C-28.944 41.34 -25.032 35.596 -21.25 29.75 C-20.874 29.172 -20.497 28.595 -20.11 28 C-17.821 24.437 -15.828 20.818 -14 17 C-17.781 17 -20.999 18.114 -24.562 19.25 Z M-63.062 33.375 C-63.605 33.595 -63.605 33.595 -66.348 34.711 C-69 36 -69 36 -70 38 C-69.34 38 -68.68 38 -68 38 C-67.67 44.27 -67.34 50.54 -67 57 C-59.588 49.588 -56.865 41.174 -55 31 C-57.994 31 -60.306 32.238 -63.062 33.375 Z " fill="#F3EEE3" transform="translate(1085,626)" />
<path d="M0 0 C6.835 0.547 12.55 2.168 17.438 7.125 C19.937 10.359 20.694 12.941 20.41 17.113 C19.463 23.777 18.275 30.392 17 37 C19.31 35.35 21.62 33.7 24 32 C23.079 35.682 21.884 38.795 20.383 42.27 C20.125 42.869 19.867 43.468 19.602 44.085 C18.779 45.996 17.952 47.904 17.125 49.812 C16.577 51.084 16.028 52.355 15.48 53.627 C14.464 55.985 13.446 58.342 12.426 60.698 C11.683 62.419 10.94 64.141 10.207 65.866 C8.611 69.622 6.896 73.231 4.938 76.812 C4.431 77.747 3.924 78.682 3.402 79.645 C2 82 2 82 0 84 C-3.336 84.521 -4.8 84.115 -7.754 82.426 C-8.681 81.728 -9.608 81.031 -10.562 80.312 C-11.027 79.97 -11.027 79.97 -13.379 78.238 C-18.434 73.922 -20.861 70.176 -21.938 63.668 C-22.05 58.872 -20.142 55.202 -18 51 C-17.539 50.063 -17.077 49.126 -16.602 48.16 C-15.6 46.143 -14.59 44.131 -13.574 42.121 C-0.003 15.214 -0.003 15.214 -1 1 C-0.67 0.67 -0.34 0.34 0 0 Z " fill="#F3EEE3" transform="translate(896,632)" />
<path d="M0 0 C1.202 3.606 0.744 4.03 -0.75 7.375 C-3.35 13.991 -4.071 20.712 -4.784 27.738 C-5.555 34.373 -5.555 34.373 -7.859 37.621 C-10.604 39.389 -12.673 39.326 -15.844 38.734 C-21.663 36.753 -26.649 32.51 -29.371 26.98 C-30.909 22.138 -31.021 17.39 -29.012 12.688 C-26.928 9.178 -24.725 5.863 -21 4 C-18.438 3.625 -18.438 3.625 -16 4 C-14.188 5.375 -14.188 5.375 -13 7 C-13 7.66 -13 8.32 -13 9 C-11.582 8.064 -10.166 7.126 -8.75 6.188 C-7.961 5.665 -7.172 5.143 -6.359 4.605 C-4.189 3.129 -2.086 1.593 0 0 Z " fill="#F3EEE3" transform="translate(1347,646)" />
<path d="M0 0 C14.009 0.382 32.893 3.439 43.273 13.766 C46.914 18.604 46.929 24.816 46.824 30.652 C46.096 35.664 43.418 38.728 39.562 41.812 C33.9 43.145 28.62 40.72 23.562 38.375 C19.499 36.535 15.582 34.937 11.188 34.062 C7.438 33.312 7.438 33.312 5.438 31.312 C6.428 30.487 6.428 30.487 11.438 26.312 C8.246 18.959 3.6 13.393 -1.562 7.312 C-2.901 5.65 -4.237 3.985 -5.562 2.312 C-3.562 0.312 -3.562 0.312 0 0 Z " fill="#F3EEE3" transform="translate(1221.5625,680.6875)" />
<path d="M0 0 C8.623 1.906 16.12 6.452 21.828 13.098 C23.22 15.641 23.267 17.264 22.938 20.125 C20.405 23.878 17.264 27.061 13.938 30.125 C13.277 30.125 12.618 30.125 11.938 30.125 C11.277 31.445 10.618 32.765 9.938 34.125 C9.277 34.125 8.618 34.125 7.938 34.125 C7.713 34.84 7.489 35.556 7.258 36.293 C5.641 39.76 3.563 41.792 0.812 44.438 C-0.098 45.321 -1.008 46.204 -1.945 47.113 C-2.644 47.777 -3.343 48.441 -4.062 49.125 C0.631 51.293 5.456 52.117 10.5 53.062 C17.083 54.329 23.582 55.689 30.039 57.512 C32.564 58.046 34.908 58.316 37.473 58.527 C43.706 59.103 49.677 60.522 55.75 62 C56.303 62.128 56.303 62.128 59.1 62.777 C60.166 63.034 61.233 63.29 62.332 63.555 C63.29 63.784 64.247 64.013 65.234 64.25 C70.489 65.951 73.35 68.029 75.895 72.992 C76.239 73.696 76.583 74.4 76.938 75.125 C77.374 75.932 77.811 76.739 78.262 77.57 C82.045 85.006 84.649 93.65 82.07 101.898 C80.494 104.996 79.137 105.763 75.938 107.125 C68.865 109.034 64.205 107.592 57.938 104.125 C57.141 103.665 56.344 103.205 55.523 102.73 C47.925 98.38 40.155 95.592 31.898 92.798 C29.222 91.879 26.576 90.897 23.938 89.875 C23.174 89.581 22.411 89.287 21.625 88.984 C19.938 88.125 19.938 88.125 18.938 86.125 C18.443 85.96 18.443 85.96 15.938 85.125 C15.938 84.465 15.938 83.805 15.938 83.125 C18.247 83.125 20.557 83.125 22.938 83.125 C22.443 82.795 22.443 82.795 19.938 81.125 C21.918 81.125 23.898 81.125 25.938 81.125 C23.628 80.465 21.318 79.805 18.938 79.125 C18.608 79.785 18.277 80.445 17.938 81.125 C15.957 80.135 13.977 79.145 11.938 78.125 C11.938 77.135 11.938 76.145 11.938 75.125 C11.484 75.228 11.484 75.228 9.188 75.75 C5.827 76.138 4.697 75.929 1.938 74.125 C2.267 73.465 2.598 72.805 2.938 72.125 C-0.724 70.777 -4.392 69.448 -8.062 68.125 C-8.895 67.817 -9.728 67.509 -10.586 67.191 C-14.9 65.653 -18.408 64.767 -23.062 65.125 C-23.227 65.62 -23.227 65.62 -24.062 68.125 C-26.664 70.031 -26.664 70.031 -30.062 72.125 C-30.646 72.487 -31.23 72.849 -31.831 73.223 C-51.126 85.125 -51.126 85.125 -57.062 85.125 C-57.783 85.148 -58.504 85.171 -59.246 85.195 C-66.35 85.368 -70.76 84.141 -76.062 79.125 C-77.375 76.375 -77.375 76.375 -78.062 74.125 C-77.712 74.28 -77.712 74.28 -75.938 75.062 C-74.989 75.413 -74.04 75.764 -73.062 76.125 C-72.176 76.455 -71.289 76.785 -70.375 77.125 C-61.815 77.125 -53.111 68.655 -47.062 63.125 C-45.331 61.169 -43.698 59.163 -42.062 57.125 C-43.197 56.871 -44.331 56.617 -45.5 56.355 C-47.021 56.008 -48.542 55.66 -50.062 55.312 C-50.806 55.147 -51.55 54.981 -52.316 54.811 C-57.426 53.633 -62.188 52.058 -67.062 50.125 C-65.796 47.592 -64.993 47.444 -62.375 46.469 C-57.09 44.796 -52.252 45.113 -46.77 45.422 C-29.777 46.351 -29.777 46.351 -25.445 43.039 C-23.119 40.166 -21.592 37.484 -20.062 34.125 C-18.888 32.221 -17.701 30.325 -16.5 28.438 C-15.682 27.003 -14.868 25.566 -14.062 24.125 C-17.045 25.828 -20.023 27.539 -23 29.25 C-23.415 29.487 -23.415 29.487 -25.518 30.688 C-30.544 33.582 -35.393 36.624 -40.148 39.946 C-42.062 41.125 -42.062 41.125 -45.125 41.875 C-52.73 39.933 -57.048 34.303 -61.031 27.883 C-61.372 27.303 -61.712 26.723 -62.062 26.125 C-61.403 25.135 -60.742 24.145 -60.062 23.125 C-58.124 23.008 -58.124 23.008 -55.727 23.25 C-48.895 23.446 -43.572 20.894 -37.438 18.125 C-36.299 17.626 -35.161 17.127 -33.988 16.613 C-27.522 13.754 -21.094 10.81 -14.75 7.688 C-14.13 7.383 -13.51 7.078 -12.871 6.764 C-10.102 5.351 -7.754 3.875 -5.336 1.91 C-3.062 0.125 -3.062 0.125 0 0 Z M26.938 82.125 C27.267 82.785 27.598 83.445 27.938 84.125 C28.598 83.795 29.257 83.465 29.938 83.125 C28.947 82.795 27.957 82.465 26.938 82.125 Z " fill="#F3EEE3" transform="translate(1051.0625,691.875)" />
<path d="M0 0 C2 1 2 1 2 1 Z " fill="#F3EEE3" transform="translate(1401,728)" />
<path d="M0 0 C2 1 2 1 2 1 Z " fill="#F3EEE3" transform="translate(1044,762)" />
<path d="M0 0 C2 1 2 1 2 1 Z " fill="#F3EEE3" transform="translate(1061,768)" />
</g></svg>
